<svg xmlns="http://www.w3.org/2000/svg" width="1024" height="1024"><path fill="#c87557" d="M525.5 257.563c8.97 4.858 14.54 10.926 18.75 20.187 1.43 6.193 2.058 12.639 1.313 18.953L546 300c3.086 1.645 3.086 1.645 7.375 2.813 33.963 10.652 58.522 36.968 74.938 67.562l1.454 2.678c7.25 13.997 11.044 29.124 14.045 44.51l1.004 5.012c3.308 16.683 6.339 33.417 9.388 50.149C664.992 531.888 664.992 531.888 671 551l1.422 4.523c3.332 9.978 7.622 19.21 12.578 28.477l2.535 4.746c5.579 10.283 11.471 20.338 17.535 30.34 3.709 6.22 7.21 12.541 10.676 18.898a194 194 0 0 0 4.977 8.344c3.754 6.053 3.727 10.552 3.277 17.672-5.145 13.61-15.265 20.87-28.016 26.898C661.74 706.047 619.444 715 582 715c-2.459-5.645-3.473-10.699-3.191-16.86C581 693 581 693 583.915 691.663c8.949-1.918 18.148-2.007 27.267-2.366 7.159-.44 14.054-1.717 21.068-3.171l3.859-.782c54.616-11.31 54.616-11.31 65.891-26.343-16.295-21.898-64.332-25.56-89.198-29.337-11.717-1.618-23.471-2.663-35.259-3.604-6.998-.568-13.863-1.38-20.783-2.524-25.544-4.141-25.544-4.141-33.76-.535-5.38 9.447-3.157 22.15-.674 32.273C524 659 524 659 526.538 660.95c2.884 1.034 2.884 1.034 8.462 2.05 13.234 6.778 20.475 16.391 26 30 4.114 14.846 2.053 28.218-5.02 41.664-7.17 12.077-17.645 19.373-30.89 23.461-8.025 1.717-16.742 2.205-24.653-.215-7.159-1.895-13.16.917-19.875 3.465l-4.87 1.836a464 464 0 0 0-9.102 3.578C463 768 463 768 460 767c.58-2.661.58-2.661 1.887-6.203l1.342-3.914a461 461 0 0 1 2.953-8.125c2.45-7.297 3.54-11.75.173-18.883l-1.757-3.023c-5.52-9.848-4.257-22.342-1.598-32.852 4.368-13.352 11.91-22.797 24-30 10.28-5 10.28-5 14-5 2.916-10.887 5.594-25.71 0-36-10.978-4.75-25.097-.82-36.442 1.1-6.28 1.017-12.5 1.55-18.841 1.989C346.84 633.117 346.84 633.117 323 657c1 5 1 5 5.188 8.438C350.14 679.625 378.608 683.873 404 688l5.465.898 5.035.79 4.73.773c4.77.539 4.77.539 10.258.39 9.19-.067 9.19-.067 13.512 2.149 1.259 4.276 1.683 6.867 1.625 11.188l.019 3.177c-.292 2.99-.292 2.99-2.644 7.635-5.104.925-9.932-.143-15-1q-4.233-.485-8.469-.945c-91.336-11.627-91.336-11.627-112.718-37.617-4.332-6.835-6.577-12.284-5.813-20.438 1.936-5.815 4.49-10.982 7.5-16.312l2.695-4.778L313 629l2.68-4.691c4.735-8.23 9.573-16.385 14.507-24.496 5.065-8.411 9.61-16.944 13.813-25.813l2.625-5.375c13.296-30.181 17.551-64.284 23.445-96.47 22.048-120.312 22.048-120.312 73.442-156.206 9.078-5.965 17.216-10.484 27.863-12.762 3.762-1.132 3.762-1.132 6.625-3.187 1.198-4.911 1.186-9.266 1.066-14.312-.109-7.719 2.536-12.651 6.809-18.875 11.698-10.812 24.337-13.594 39.625-9.25"/><path fill="#c87d62" d="M552 678c8.346 8.346 10.726 18.983 11.25 30.5-.37 8.12-1.736 15.153-5.25 22.5l-3-6h3v-11l3-1c-.346-6.346-.346-6.346-3-9a90 90 0 0 1-1-6l-2 6-1-4h-2v2h-2c-1.294-5.412-1.294-5.412 0-8h3v-3l3-1h-1v-5l-3-1z"/><path fill="#ca8d76" d="M472 614h2l-1 3zm0 3v4c2.754-.073 2.754-.073 6.563-.762 17.226-2.144 17.226-2.144 23.437 1.762 4.334 10.632 4.332 28.363 0 39-4.62 1.037-4.62 1.037-9 1 3-2 3-2 8-3 3.57-9.978 4.098-22.242 1.986-32.573C501 623 501 623 497.162 621.479c-11.003-1.031-21.823.811-32.657 2.67-8.142 1.258-16.278 1.602-24.505 1.851 3.825-3.825 10.862-2.31 16.035-2.363L460 623l1-5c6.314-2.526 6.314-2.526 11-1"/><path fill="#c67c60" d="M369 478c2.815 4.223 1.497 7.219.605 11.992L369 493l-1 5 5-2c1 4 1 4 1 8h2v2h-2v4h-2l1 4h-2v-2l-3 3-2 1-1 3-2-1c-.315-5.45.279-10.439 1.313-15.781l.82-4.297.867-4.422.867-4.516Q367.925 483.49 369 478"/><path fill="#c6836a" d="m393 375 2 3-1 5c0 3 0 3 1 5l-4 6-1 5-1.937 2.875c-3.53 5.348-4.12 10.348-4.5 16.625L383 424l-3-1c.756-16.588 6.584-32.857 13-48"/><path fill="#c57e64" d="M620 357c2.921 3.442 5.061 6.787 7.016 10.852l1.601 3.328 1.633 3.445 1.68 3.469C636 386.615 636 386.615 636 390h-3l-1.437-3.875C630 382 630 382 626 380v-2l-4-1 1-4-2-5c-.394-3.66-.735-7.328-1-11"/><path fill="#c88c75" d="M428 692c5.448-1.197 9.998-1.667 15 1 2.022 7.807 1.712 14.406-1 22-5.228 2.085-9.724.452-15-1l-4.875-.437L419 713l-1-2c2.746-.266 2.746-.266 6.438-.25l3.683-.016L431 711v2c4.563 1.063 4.563 1.063 9 0 .92-5.15.604-10.025-1-15-3.09-1.414-3.09-1.414-6-2v-1l-3.062-.437L427 694z"/><path fill="#c6866d" d="M626 705v2l4-2c10.305-.463 10.305-.463 14 2a8086 8086 0 0 1-17.625 3l-5.05.867-4.864.82-4.475.762C608 713 608 713 602 713c3-2 3-2 7.563-2.375L614 710l2-4c3.503-1.168 6.328-1.208 10-1"/><path fill="#c6836a" d="M636 390c3.124 4.685 3.791 10.131 5 15.563.26 1.142.52 2.285.79 3.462C646 427.624 646 427.624 646 433l-3-1-1-5-2-3v-8l-2 1a280 280 0 0 1-1.125-13.437l-.262-3.917c-.213-3.214-.414-6.43-.613-9.646m2 34 2 1-3 2z"/><path fill="#c67d61" d="m338 586 1 4 5 2-1 2h-2l-1 4c-1.937 2.75-1.937 2.75-4 5h-2l-2 5-5-1c1.893-4.731 4.108-8.89 6.625-13.312l2.477-4.364z"/><path fill="#c88065" d="m423 703 2 1c0 2.938 0 2.938-1 6-7.39 3.965-16.612 1.768-24.5.563l-5.406-.81L390 709v-1c4.14-.145 7.86-.027 11.938.75L405 709l1-4h3l-1 4h6v-3a330 330 0 0 1 9-1z"/><path fill="#c6836a" d="M364 630h2l-1 4h4l1-4h2v3c3.324.416 6.66.75 10 1v1a394 394 0 0 1-9.5 2.25c-8.321 1.932-16.431 4.161-24.543 6.832C345 645 345 645 343 645v-2c4.008-1.678 6.556-2 11-2v-2l4-1 1-4 1 3h3v-6z"/><path fill="#c88266" d="M329 667c5.195 2.078 10.308 4.311 15.43 6.563 3.57 1.437 3.57 1.437 7.64 2.5L355 677l-2 2h-4v-2l-5.5 2.125L338 681v-4l-4 1c-1-3-1-3-2-7l-3-2z"/><path fill="#c78a73" d="m471 678 1 3-1 2h-2l-1 4.5-1 4.5h-2q-.062 4.5 0 9l-1 1c-.299 4.058-.174 7.916 0 12l3-1c-.358 10.038-.358 10.038-3 14-3.916-16.386-3.581-29.658 4-45z"/><path fill="#c6856d" d="M352 699c8.75-.125 8.75-.125 11 1q5.498.528 11 1 3.501.491 7 1h3l2 3h6v2c-5.12 1.19-9.07.843-14.14-.363l-3.993-.94-4.117-1.01-4.164-.974c-10.163-2.431-10.163-2.431-13.586-4.713"/><path fill="#c8856c" d="M378 684c7.082.354 14.082 1.784 21.063 3l3.2.54A318 318 0 0 1 410 689v1c-4.56.075-9.112-.005-13.672-.062C392 690 392 690 388 691l-2-1v2h-2v-2h-4v-2l-2-1z"/><path fill="#c6846b" d="m464 754 1 3 4-1 1 4c3.563 1.25 3.563 1.25 7 2-4.374 2.916-9.027 4.361-14 6l-3-1c.582-2.941.582-2.941 1.813-6.562l1.207-3.63z"/><path fill="#c7876e" d="M668 545c2.479 3.718 3.552 7.373 4.938 11.625l1.527 4.664L676 566l1.816 5.023L679 575l-2 1-1.375-3.375L674 569l-4-1-2-4h3a124 124 0 0 0-2-6 117 117 0 0 1-.625-6.875l-.227-3.492z"/><path fill="#c58167" d="M322 680v4l3-3h2v3h-2v2l4.5.938L334 688v3l4 2c-3 1-3 1-6.617-.512l-4.258-2.176-4.242-2.136c-3.29-1.844-6.047-3.712-8.883-6.176 5.75-2 5.75-2 8-2"/><path fill="#c5846c" d="M699 685h5v2c-20.076 11-20.076 11-28 11v-5h5l1-3 4.875.063L692 690l3-4 3 1z"/><path fill="#c88971" d="M561 701c2 2 2 2 2.25 7-.16 8.196-1.703 15.584-5.25 23l-3-6h3v-11l3-1c.293-2.723.293-2.723.188-6.062z"/><path fill="#c68268" d="m555 728 2 3c-1.007 4.76-3.05 7.65-6.312 11.188l-2.301 2.542C546 747 546 747 541 750c1-5 1-5 4-8h2v-2h2l1-2-2-1 2-2 1-2h2z"/><path fill="#bf7053" d="M521 622h1c.103 2.696.13 5.395.133 8.094l.004 5.058-.012 5.348.012 5.348-.004 5.058-.004 4.698L522 659h-1v-5h-2c-1.25-4.998-1.585-9.09-.062-14.062 1.358-5.034 1.55-9.928 1.816-15.122z"/><path fill="#c4836a" d="m465 727 3 1v2h3v2l2 1h-2v9h-2l.688 4.875L470 752l-5 2c0-4.376 1.308-7.838 2.813-11.937C469 737 469 737 467.188 732.5L465 729z"/><path fill="#c98c74" d="M520 256c6.343 1.903 11.4 4.144 16 9l-2 2-2.187-1.812c-3.36-2.613-5.649-2.725-9.813-3.188l-3-2v-3c-3.937-.074-3.937-.074-9 .313l-5.062.363L501 258c5.51-3.673 12.588-2.495 19-2"/><path fill="#c78268" d="m408 350 1 4h2c-2.439 4.877-5.136 8.136-9 12l-4 1c1.734-4.335 3.524-7.495 6.125-11.312l2.195-3.239z"/><path fill="#bf7c64" d="m482 273 1 2 3 1v4l-5 2c-.418 3.371-.418 3.371-.187 7.438.371 7.286.371 7.286-1.813 10.562-.082-3-.14-6-.187-9l-.106-5.062c.293-4.93 1.312-8.446 3.293-12.938"/><path fill="#c48871" d="M574 313c9.749 3.9 19.251 10.901 26 19l-2 2c-1.926-1.893-3.843-3.797-5.695-5.762-3.39-3.292-7.375-5.638-11.305-8.238l-1-3-3 1v-2l-3-1z"/></svg>