<svg xmlns="http://www.w3.org/2000/svg" width="1024" height="1024"><path fill="#d06e4c" d="M867.688 135.125c8.458 7.6 14.466 16.374 15.312 27.875.613 16.342-5.641 26.541-16.055 38.473-7.088 8.489-13.361 17.78-18.437 27.613a191 191 0 0 1-3.516 6.453c-43.695 78.408-38.484 178.818-14.855 262.488 5.874 20.322 11.842 40.96 19.722 60.61 33.011 82.707 50.018 182.937 15.891 268.433-5.839 13.112-12.541 24.912-21.75 35.93l-2.164 2.852L840 868h-2v2h-2v2c-17.306 14.812-37.768 24.973-61 25l-4.707.035c-10.722-.193-20.725-1.434-31.168-3.785l-3.293-.727C729.409 890.972 724.27 889.01 719 885c-3.205-5.341-3.92-7.857-4-14 1.63-6.435 3.848-10.165 8.813-14.375C754.943 830.21 769.893 786.055 776 747l.746-4.703c6.351-48.88-2.516-99.897-18.055-146.2C744.374 552.945 731.174 509.15 725 464l-.45-3.177c-8.754-62.545-5.522-125.704 11.86-186.47l1.016-3.56.919-3.171C739 265 739 265 739 262h2l1-5a154 154 0 0 1 2.723-6.29l1.63-3.6 3.43-7.493 1.627-3.594 1.504-3.283C754 230 754 230 754 227c-6.713 4.733-12.94 9.568-18.906 15.215C733 244 733 244 730 245l-2 4-4 2v2h-2v2l-2.11 1.629C692.236 279.314 673.213 324.799 663 358l-.954 2.973C653.13 388.762 648.108 417.016 645 446l-.343 3.195c-2.994 29.281-2.73 58.908-2.595 88.305.205 63.89-5.657 127.403-25.062 188.5l-1.277 4.082c-6.796 21.119-15.311 43.208-27.046 62.145-1.514 2.503-2.9 5.082-4.27 7.668-3.968 7.308-8.55 14.188-13.157 21.105l-2.555 3.906c-4.707 7.083-9.601 13.565-15.477 19.72-2.226 2.382-4.228 4.857-6.218 7.437-4.356 5.4-9.162 10.286-14.062 15.187l-2.292 2.293c-4.725 4.68-9.603 9.116-14.646 13.457l-3.09 2.766-2.847 2.484-2.84 2.516c-7.29 5.054-14.53 5.665-23.223 5.672l-5.625.058c-10.917-1.007-19.332-6.79-26.457-14.851-6.225-8.244-8.767-17.311-7.918-27.645 2.609-14.253 8.51-22.824 19.563-31.937 3.62-3.226 6.398-6.631 9.355-10.454 1.989-2.492 4.083-4.79 6.27-7.109 55.678-61.76 69.626-153.258 71.76-233.27.117-4.387.243-8.774.37-13.16.35-12.15.678-24.3.924-36.453.643-31.392 2.564-62.623 7.758-93.617l.538-3.29c8.108-48.905 23.21-96.846 48.462-139.71l1.73-3.008c9.319-15.939 20.2-32.02 32.27-45.992h2l2-4a275 275 0 0 1 5-5 997 997 0 0 0 4.125-4.687c4.161-4.663 8.619-8.851 13.297-12.989q2.582-2.327 5.035-4.793c8.968-8.926 19.159-16.36 29.543-23.531l3.423-2.366c8.836-6.003 17.87-11.3 27.327-16.259l4.25-2.238c10.148-5.29 20.283-10.094 31-14.137l5.191-2c18.098-6.791 36.685-12.907 55.809-16l4.625-.75c12.165-.695 21.72.98 32.063 7.875M262 127l5.75.125c12.445 1.023 26.46 4.588 37.25 10.875 4.562 6.083 4.71 11.555 4 19-1.812 4.188-1.812 4.188-4 7l-3 1v2l-3.5 3c-34.459 29.579-48.57 81.675-52.152 125.14-3.1 52.246 8.87 100.74 24.472 150.156C285.366 491.369 297.578 536.813 303 585l.398 3.428C309.244 640.86 304.756 695.622 289 746l-1.719 5.57c-3.689 11.52-8.167 22.475-13.281 33.43a3627 3627 0 0 0-3 6.625L269 796l4.25-2.875C278 790 278 790 282 788v-2c7.21-6.736 7.21-6.736 11-8v-2a386 386 0 0 1 5.645-4.953C306.003 764.653 311.126 758.44 316 750h2v-2h2l1-4h2l1-4h2l2-4a998 998 0 0 1 5.125-7.75c5.299-8.162 9.767-16.437 13.875-25.25.73-1.543 1.46-3.086 2.21-4.676 30.006-64.875 34.644-134.097 35.29-204.574.563-61.188.563-61.188 2.75-85.25l.387-4.28C391.583 362.856 399.24 320.96 414 282l1.22-3.27c5.675-15.178 11.83-29.586 19.78-43.73q1.433-2.67 2.863-5.34c3.11-5.705 6.505-11.193 10.012-16.66l1.866-2.917a299 299 0 0 1 19.314-26.665c1.916-2.382 3.777-4.8 5.632-7.23 2.637-3.333 5.323-6.198 8.313-9.188l3-5h2v-2h2v-2h2v-2c2.18-1.832 4.42-3.59 6.688-5.312 3.58-2.725 6.975-5.348 10.144-8.543C511 140 511 140 513 140v-2c12.524-10.327 24.197-10.904 40-10 11.112 2.872 19.179 11.016 26 20 5.79 11.38 4.89 23.043 1 35-2.035 4.741-4.495 7.849-8.187 11.438l-2.958 2.878c-3.537 3.325-7.179 6.515-10.855 9.684-54.415 51.624-74.228 132.967-81 205l-.296 3.072c-1.642 17.908-1.932 35.834-2.204 53.803-1.473 96.373-1.473 96.373-10.5 138.125l-.746 3.526c-13.938 65.57-39.778 129.254-85.988 179.025-1.97 2.128-3.874 4.315-5.766 6.511-6.691 7.528-13.863 14.375-21.5 20.938l-4.312 4.063C326.438 838.396 303.847 852.02 281 864l-4.004 2.145C257.252 876.425 236.39 883.993 215 890a3868 3868 0 0 0-5.828 1.723c-15.824 4.56-30.634 8.028-46.422 1.527-10.79-6.474-16.594-12.991-20.687-24.875-2.576-13.028-.465-24.28 6.937-35.375 2.41-3.007 4.908-5.923 7.422-8.844 4.394-5.379 7.962-11.238 11.578-17.156l2.246-3.625C209.308 739.468 218.936 664.515 208 591l-.451-3.095c-7.008-46.68-22.132-92.176-38.667-136.26C139.842 373.632 124.742 274.904 160 196c13.058-27.968 30.733-50.996 60-63 14.024-4.382 27.326-6.362 42-6"/><path fill="#cd704f" d="M273 455c21.778 32.667 25.815 91.634 30 130l.36 3.175c5.733 52.51 1.57 107.378-14.36 157.825l-.96 3.063c-5.494 17.391-5.494 17.391-8.04 19.937.52-6.849 1.25-13.33 3-20h1l.375-5.25C285 738 285 738 288 734c1.708-4.554 3-8.122 3-13h2v-9h2q.063-4.5 0-9h1c.293-3.122.45-6.244.621-9.375L297 691h2c.154-5.184-.01-10.343-.125-15.527-.01-4.846.464-9.484 1.11-14.285 1.356-10.746 1.308-21.434 1.265-32.25l.023-6.127-.007-5.784-.007-5.258L301 608h-2l-1-3 1-2c-1.149.565-2.297 1.13-3.48 1.71-.581.049-.581.049-3.52.29-.512-4.04-.557-7.351-.312-11.375.17-3.881.273-7.738.312-11.625h-2v-2h3v3l1-1-1.062-3.687c-.994-4.572-.45-6.08 1.062-10.313l-3-2c.125-3.125.125-3.125 1-6h3c.363-3.027.363-3.027.313-6.937l-.012-3.903L295 546l-2-1 1-5c-1.115-3.802-2.225-7.45-4-11l-4 1v2h-2l1-4 4-2c.41-4.215-.318-7.774-1-12l-3 1-2-1-1-3-3-2v-7l-3-1 1-4h2l1-2 1 1v-6h-2l.125-2.687c-.225-7.77-3.278-15.005-5.937-22.25-1.169-3.997-1.303-6.108-.188-10.063"/><path fill="#ce7f65" d="M443 221h1c-.312 3.5-.312 3.5-1 7h-2l-1 5-1 4h-2v6l-2 3v4l-5 3c-1.477 2.883-1.477 2.883-2.625 6.125-1.164 3.258-1.164 3.258-2.375 5.875l-3 1c-.418 2.32-.736 4.658-1 7-.9 3.378-1.895 6.684-3 10h-2q-.524 4.998-1 10c-2 4-2 4-4 5-.652 4.167-1.027 8.338-1.437 12.535L409 314h-2v11h-2v2h2l-1.062 3.5L405 334h3l-1 4-2-1v3h-3a235 235 0 0 0-2 10l-2 4a90 90 0 0 0-.562 6.188C397 366 397 366 396 367c-.373 2.14-.699 4.287-1 6.438-.892 6.345-.892 6.345-2 8.562l-.5 5.063C392 392 392 392 391 393c-.235 2.35-.414 4.706-.562 7.063l-.254 3.91L390 407l.438-4 .562-4h1c.103 2.638.13 5.278.133 7.918l.004 4.99-.012 5.28.012 5.22-.004 5.01-.004 4.618C392 436 392 436 391 441a306 306 0 0 0-.062 9.219l.023 5.515.078 11.438c.083 19.682.083 19.682-1.039 28.828l-2-1a205 205 0 0 1-.195-11.473l.008-3.493c.012-3.699.037-7.398.062-11.096q.016-3.752.027-7.502.035-9.218.098-18.436c-1.243 9.765-1.207 19.515-1.281 29.348l-.056 5.696q-.088 9.009-.163 18.019c-.52 60.085-.52 60.085-1.5 69.937l-2 1c.005-4.275.142-8.494.344-12.762.518-12.982.808-25.953.937-38.945.02-1.798.038-3.595.057-5.447q.112-11.136.214-22.272c.526-55.178.526-55.178 2.698-79.074l.387-4.28C391.583 362.856 399.24 320.96 414 282l1.22-3.27c5.675-15.178 11.824-29.588 19.78-43.73q1.754-3.249 3.5-6.5c2.5-4.5 2.5-4.5 4.5-7.5"/><path fill="#ce7657" d="m753 153 3 1c-6.75 4-6.75 4-9 4v3h-3v2h-3v2l-9 2v2l-3.437.438L725 170l-1 3h-3v2l-5 2a282 282 0 0 0-5 5h-2c-.73 1.977-1.394 3.98-2 6l-1 2h2v2h2v-6h2c.813 2.75.813 2.75 1 6l-3 4h-2l-.937 2.938L706 202l-3 1-2 3h-3l-2-4 4-2v-2l-2.562.438c-3.768.616-6.697.21-10.438-.438h-2l-2 5-3 1c-4 4-4 4-5 7l-5 1-3 4-5 3c-3.791 3.26-5.778 5.388-7.5 10.125-1.77 4.57-3.44 5.37-7.5 7.875l-2 5 2 1h-2l-1 2h-5l-1 5-3 1v3h-3l-1 5h-2v5l-5 1c-1.25 3.938-1.25 3.938-2 8-1 2-1 2-6 4-1.72 3.82-2.887 7.591-4 11.625L611 291l-3-2c7.559-18.897 21.753-37.664 35-53h2l2-4a275 275 0 0 1 5-5 997 997 0 0 0 4.125-4.687c4.161-4.663 8.619-8.851 13.297-12.989q2.582-2.327 5.035-4.793c8.968-8.927 19.16-16.357 29.543-23.531l3.386-2.351c9.162-6.244 18.592-11.605 28.427-16.711l4.369-2.295c9.447-4.957 9.447-4.957 12.818-6.643"/><path fill="#d39881" d="M875 643c2.041 4.083 2.61 6.997 3.254 11.484.215 1.494.43 2.988.65 4.528l.659 4.738c.22 1.517.442 3.034.67 4.598C888.161 724.453 885.39 792.039 858 843h-1q-.521-4.498-1-9l-1-3 3-1c1.102-4.06 2-7.783 2-12l5-3c4.886-7.782 5.447-16.06 5-25h-2c-.812-3.562-.812-3.562-1-7l3 1 1-4 2 2c2.562-6.405 2.75-12.625 3.21-19.424.196-2.531.484-5.055.79-7.576h2c.195-3.835.254-7.598.23-11.434v-3.577q-.006-3.777-.024-7.554c-.018-3.797-.02-7.593-.02-11.39-.05-35.772-.05-35.772-3.186-42.045l-3 1c-.363-2.746-.363-2.746-.312-6.437l.011-3.684L873 667h2c.15-4.023.184-7.978.125-12l-.027-3.469c-.024-2.844-.06-5.687-.098-8.531"/><path fill="#cb7a5d" d="M764 609c2.875 1.25 2.875 1.25 6 3h2v5h2v3h2v4h-2c.268 2.674.617 5.34 1 8q.247 4.217.438 8.438c.875 15.875.875 15.875 3.562 18.562.226 3.07.449 6.141.621 9.215C780 671 780 671 782 673c.29 4.37.469 8.687.563 13.063q.102 3.84.21 7.683l.105 3.777c.154 4.377.471 8.735.81 13.102.467 7.217-.395 13.495-2.688 20.375a831 831 0 0 0-1.162 15.264c-.36 4.794-.666 8.392-2.838 12.736l-.375 3.625c-.745 5.214-2.673 9.495-4.625 14.375l-.5 4.25c-.563 4.224-1.77 6.508-4.5 9.75-1.813-3.626.555-7.618 1.688-11.312 15.447-52.164 12.008-110.929-3.586-162.75C764 613 764 613 764 609"/><path fill="#d29983" d="M729 302c2 4 2 4 3 9l4 1v5l-2 2 .938 2.813C736 325 736 325 735 330h-1v-5l-1 2-5 3c-.687 3.688-.687 3.688-1 7h-2c-.211 3.118-.211 3.118-.16 7.445l.033 4.703.064 4.977q.053 4.816.09 9.633l.055 4.348C725 372 725 372 724.509 374.816c-.763 4.772-.672 9.544-.677 14.364l-.01 3.29a3035 3035 0 0 0-.007 6.893c-.002 3.465-.02 6.93-.04 10.395-.037 14.481.098 28.6 4.35 42.555 3.12 11.565 2.405 23.81 1.875 35.687h-1c-.996-4.669-1.645-9.409-2.375-14.125l-.677-4.36C723.765 455.056 722.21 440.57 721 426l-.402-4.785c-2.732-39.776.292-80.202 8.402-119.215"/><path fill="#cf937b" d="M477 395h1c-.042 2.21-.167 4.419-.312 6.625l-.301 4.816q-.398 5.702-.867 11.399c-1.349 17.01-1.77 33.98-2.02 51.035-1.53 101.02-1.53 101.02-10.5 138.125h-1c-1.006-24.984-1.006-24.984 3-35 1.173-4.69 1.059-8.791 1-13.625-.11-9.153-.11-9.153 1-11.375 1.138-15.41 1.092-30.864.963-46.305l-.026-4.125-.035-3.695C469 490 469 490 470 488c.133-3.272.203-6.546.246-9.82l.1-5.996q.072-4.747.13-9.495c.04-3.045.092-6.09.145-9.134l.076-5.548L471 444h2c.125-3.248.12-6.5.063-9.75-.07-7.838-.1-15.476.937-23.25h2c.122-2.476.12-4.959.063-7.437A254 254 0 0 1 476 396z"/><path fill="#d28569" d="M817 439h1c.522 3.06 1.035 6.121 1.508 9.189C824.333 479.453 833.136 508.975 843 539l1.405 4.313 1.306 3.976 1.126 3.436C848 554 848 554 849.706 557.732 851 561 851 561 850 564l-2.312-3.687L845 557l-3 3c-4-2-4-2-5.875-7.5L835 547l2-2h-1c.228-4.175.59-8.334.941-12.5.02-1.155.04-2.31.059-3.5h-2c-.572-2.186-1.03-4.402-1.437-6.625-.893-4.867-1.756-9.223-4.563-13.375l-3 3h-3l-3-4c.59-3.348 1.278-6.678 2-10 .553-5.318 1.08-10.65 1-16h-2c-1.33-5.689-2.006-10.519-1.937-16.375-.052-4.657-.494-7.893-1.625-12.312-1.298-5.105-1.667-9.09-.438-14.313"/><path fill="#c2775d" d="M647 416h1c-.639 10.397-1.778 20.74-2.895 31.096-1.57 14.824-2.334 29.562-2.668 44.467l-.133 5.671c-.285 13.426-.31 26.838-.241 40.266.116 31.829-.789 63.92-5.063 95.5h-1a453 453 0 0 1-.125-12.5l-.012-3.613c.004-2.963.065-5.925.137-8.887h1c.252-3.49.432-6.958.563-10.453l.128-3.287c.379-10.575.389-21.138.326-31.719-.604-115.573-.604-115.573 6.983-134.541q.603-3.144 1.063-6.312z"/><path fill="#cd795b" d="M563 132c8.872 6.89 16.892 14.57 19.688 25.75 1.075 11.184-.058 21.372-5.688 31.25-2.418 2.746-2.418 2.746-5.187 5.438l-2.95 2.867c-8.93 8.407-8.93 8.407-13.863 11.695-1-4-1-4 0-6h4l1-4 3-3 2 1v-2h2v-2l4-1v-3h2v-4h2v-2h2q.062-5.5 0-11l1-1c.288-2.682.506-5.371.688-8.062l.324-4.473L579 155h-2v-6h-2v-2h-2v4h-2l-1 2-2-4h-2v-5h-2v4h-2v-5h-2l.5-2.937.5-3.063-2-1 1-3c-3.062-.625-3.062-.625-7-1l-3.437-.625L547 131v1c-4.685.298-9.371.451-14.062.621-6.257.48-11.326 1.573-16.938 4.379 10.717-12.017 33.644-12.713 47-5"/><path fill="#be785d" d="M824 278h2c-.94 7.004-2.678 13.77-4.375 20.625-10.56 43.956-11.49 89.757-4.625 134.375v5c-2-3-2-3-2-5h-2c-3.82-21.828-4.171-45.255-4.187-67.375l-.003-3.15c.054-7.067.054-7.067 1.19-10.475.2-1.997.363-3.998.5-6 .225-3.274.46-5.88 1.5-9 .268-3.419.445-6.837.621-10.262L813 324h2c-.093-5.428-.388-10.814-.723-16.23l-.183-3.497-.198-3.205c.139-4.09 1.284-7.427 3.104-11.068l2 1c.563-2.687.563-2.687 1-6l1-4h2z"/><path fill="#ca7b60" d="m262 127 5.75.125c12.445 1.023 26.46 4.588 37.25 10.875 4.562 6.083 4.71 11.555 4 19-1.812 4.25-1.812 4.25-4 7h-3l2-5c.389-2.993.73-5.994 1-9l-2 1c-.625 3.063-.625 3.063-1 6l-2-4h-2v-3c4-3 4-3 6-3 .313-3.375.313-3.375 0-7-4.965-3.31-10.67-1.974-16.484-1.777L284 138l1-3h-2l-1-2c-4.753-1.584-9.66-1.185-14.625-1.187l-3.2-.038c-6.365-.011-11.96.694-18.175 2.225h-9q-4.005.985-8 2c-2.666.037-5.334.048-8 0v1q-4 .063-8 0c10.412-10.412 35.18-10.341 49-10"/><path fill="#cb7153" d="m490 323 2 1c-.37 5.115-1.693 10.016-2.917 14.984-3.488 14.22-5.915 28.524-8.078 43l-.708 4.641-.614 4.164C479 394 479 394 477 396c-.389 3.93-.508 7.843-.656 11.79L476 411h-2c-.16 2.625-.16 2.625-.062 6 .053 2 .083 4 .062 6h-1c-.102-2.227-.13-4.458-.125-6.687l-.008-3.762C473 409 473 409 474 404c.27-3.1.496-6.206.688-9.312l.324-4.926L475 386h-2l-4-6h2l2-5c1.27-2.04 2.594-4.05 4-6h1l1-5h2c.044-3.666.04-7.334 0-11l1-4-2-1v-2l-2-1c.9-2.702 1.942-5.356 3-8l2-1 2-4h2l1.5-4.562z"/><path fill="#cd846b" d="M381 579h1c.102 3.249.13 6.5.125 9.75l.008 5.484C382 599 382 599 381 603l.063 3.75c-.066 4.427-.962 7.974-2.063 12.25-.75 5.5-.75 5.5-1 10h2c-.75 4.5-.75 4.5-2 9h-2c-1.058 2.644-2.1 5.298-3 8h-2l.063 3.063c-.07 4.392-1.324 6.951-3.063 10.937v6l-2 1c-1.217 5.14-2 9.71-2 15l-5 1v6l-3 3-1 4-4 1c.843-4.215 1.798-6.99 3.563-10.812 13.51-31.007 20.95-64.662 25.182-98.096.387-3.035.816-6.064 1.255-9.092"/><path fill="#d18469" d="m350 697 2 3c-1.125 5.625-1.125 5.625-3 11l-4 1c-1.118 4.111-1 7.689-1 12l4-1-1 5-4 1-1 2h-2v3l-5 1-1 2h-2v2l-2 1-2 4h-2v3l-3 3h-3v2h-2l-1 4h-2v4l-3 3h-2l-1 5-5 1a362 362 0 0 0-8 8l-3 1v-2a386 386 0 0 1 5.645-4.953C306.003 764.653 311.126 758.44 316 750h2v-2h2l1-4h2l1-4h2l2-4a998 998 0 0 1 5.125-7.75c6.02-9.236 11.053-18.797 15.469-28.895z"/><path fill="#ce7152" d="M679 314c1 3 1 3-.844 7.184l-2.656 5.253c-5.045 10.275-9.027 20.645-12.5 31.563l-.976 3.021c-5.11 15.942-8.833 31.911-11.895 48.366L649 415h-1c.012-3.21.112-6.419.25-9.625l.203-5.414c.507-4.601 1.316-7.027 3.547-10.961q.516-3.998 1-8h2v-11h2c-.112-4.675-.53-9.304-.906-13.965L656 352l2-1 .5-3 .5-3 2-1-3-3 4-2 2 1v-2h-2l1-4h-2l1-4c4 0 4 0 6 1l1-2h2l1-5 1-3 3-1c1.688-3.062 1.688-3.062 3-6"/><path fill="#d2947b" d="m693 189 2 1c-2 3-2 3-5.437 4.813-3.957 2.429-4.728 4.059-6.563 8.187l-3 1c-4 4-4 4-5 7l-5 1-3 4-5 3c-3.791 3.26-5.778 5.388-7.5 10.125-1.77 4.57-3.44 5.37-7.5 7.875l-2 5 2 1h-2l-1 2h-5l-1 5-3 1v3h-3l-1 5h-2v5l-5 1c-1.25 3.938-1.25 3.938-2 8-1 2-1 2-6 4-1.72 3.82-2.887 7.591-4 11.625L611 291l-3-2c7.559-18.897 21.753-37.664 35-53h2l2-4a275 275 0 0 1 5-5 997 997 0 0 0 4.125-4.687c4.161-4.663 8.619-8.851 13.297-12.989a122 122 0 0 0 4.992-4.762c2.945-2.917 6.04-5.579 9.211-8.25l3.414-2.886C690 191 690 191 693 189"/><path fill="#e2a38c" d="M391 399h1c.103 2.638.13 5.278.133 7.918l.004 4.99-.012 5.28.012 5.22-.004 5.01-.004 4.618C392 436 392 436 391 441a306 306 0 0 0-.062 9.219l.023 5.515.078 11.438c.083 19.682.083 19.682-1.039 28.828l-2-1a205 205 0 0 1-.195-11.473l.008-3.493c.012-3.699.037-7.398.062-11.096q.016-3.752.027-7.502.035-9.218.098-18.436c-1.243 9.765-1.207 19.515-1.281 29.348l-.056 5.696q-.088 9.009-.163 18.019c-.52 60.085-.52 60.085-1.5 69.937l-2 1c.005-4.275.142-8.494.344-12.762.518-12.982.808-25.953.937-38.945.02-1.798.038-3.595.057-5.447q.112-11.136.214-22.272c.723-75.849.723-75.849 5.448-80.574.363-2.663.699-5.33 1-8"/><path fill="#d9aa96" d="M553 495h1c.164 3.685.261 7.352.316 11.04l.063 3.473q.066 3.675.124 7.35.088 5.505.19 11.008c.73 41.435.73 41.435-.693 47.129-.127 2.514-.202 5.03-.246 7.547l-.1 4.5q-.09 4.68-.172 9.36l-.103 4.515-.076 4.112c-.32 4.183-1.24 7.915-2.303 11.966-.415 4.09-.776 8.152-1.062 12.25-.818 11.27-.818 11.27-1.938 15.75-.263 3.691-.444 7.382-.621 11.078L547 659h-2a200 200 0 0 0 0 10l-3-2c.313-7.114 1.653-14.056 2.875-21.062 6.577-40.552 6.374-81.754 7.363-122.73q.101-4.183.205-8.367.117-4.842.216-9.684c.077-3.386.202-6.772.341-10.157"/><path fill="#d2917b" d="m188 504 4 1c2.533 5.88 3.115 10.663 3 17h2c.816 2.809.816 2.809 1.563 6.438 1.347 6.472 1.347 6.472 2.437 7.562.54 4.433.968 8.872 1.402 13.316L203 553h2c7.036 14.073 6.77 30.6 7 46l.086 5.086c.07 7.813.07 7.813-.086 10.914h-1a441 441 0 0 1-1.25-10.25c-3.794-31.343-10.617-62.213-20.09-92.348C188 507 188 507 188 504"/><path fill="#ce7252" d="M851 564c2.189 3.283 3.291 6.307 4.61 10.027l1.529 4.31 1.611 4.6 1.643 4.682C876.377 633.494 876.377 633.494 874 643v-2h-2a285 285 0 0 1-2-9l-1-1q-.523-3.998-1-8l-1-4q-.509-3.499-1-7l-1-5h-2l-1.812-3.562L859 600l-5 1-1-3h-3c.21-5.32.606-9.212 3-14-.312-4.497-.907-8.628-2-13l1-2h-3v-3h2z"/><path fill="#cb7050" d="m739 527 2 3 2 2 2 7 2.125 4.313c2.085 5.212 2.031 9.132 1.875 14.687h2l1 6h2v2l3.125.188L760 567c-.75 3.563-.75 3.563-2 7h2c2.245 6.264 2.245 6.264 1 10 .696 9.391.696 9.391 2 12l-.062 4.063L763 604l2 1-2 4c-4.645-13.636-8.953-27.365-13.179-41.135q-1.621-5.28-3.25-10.556l-2.087-6.786-.972-3.15C739 532.637 739 532.637 739 527"/><path fill="#cf6f50" d="M390 772c0 4.452-2.348 6.063-5.25 9.375l-3.312 3.781C371.432 796.344 361.37 807.18 350 817l-2.656 2.473-2.719 2.527-2.523 2.375L340 826l-2-1c1.125-3.062 1.125-3.062 3-6h4v-3h2l1-3h2v-2h4v-6l2-1 2 1v-2h4l1-4 1-2h2v-2h2c2-4 2-4 1-9h-3v-2h6v-6h4v2h2v-2l5 1-1-4c3.938-1.937 3.938-1.937 8-3"/><path fill="#d6a089" d="M635 633h1c.23 6.147-.298 11.842-1.355 17.89l-.88 5.058-.952 5.302-.973 5.457c-3.657 20.216-8.621 39.726-14.84 59.293l-1.488 4.715c-3.234 10.007-3.234 10.007-5.512 12.285a614 614 0 0 1 2.5-11.812c.836-3.859 1.545-7.575 2-11.5.605-4.465 2.077-8.42 3.5-12.688l.563-4.562L619 699h2l1 3c1.56-7.59 2.308-14.87 2.559-22.617C625 676 625 676 628 671a177 177 0 0 0 1.563-10.437l.75-5.91L631 649c.58-4.695 1.222-9.332 2-14h2z"/><path fill="#d1704f" d="M786 884c5.47-.768 9.377-.005 14 3v2c3.5.25 3.5.25 7 0v-2h4v-2l4 1c-9.766 9.766-31.936 10.987-44.875 11.008-13.651-.33-25.975-2.561-39.125-6.008 5.224-1.306 9.686-.633 15 0v1c5.625 1.125 11.041 1.26 16.75 1.313l3.172.087c7.03.058 11.841-1.25 18.078-4.4h3z"/><path fill="#cd896f" d="M576 361c1.314 5.256-.282 7.885-2 13-.893 5.563-1.57 11.13-2.254 16.723L571 395h-2v8h-2c0 2.565.009 5.13.059 7.695-.104 5.862-.402 12.992-3.059 18.305v5l-2 4c-.355 2.33-.691 4.663-1 7l-1 1c-2.21 12.437-3.46 24.94-4.353 37.53-.183 2.492-.41 4.982-.647 7.47h-1c-.236-8.829.32-17.468 1.188-26.25l.4-4.06c3.496-33.711 9.457-67.548 20.412-99.69"/><path fill="#d8a691" d="M443 221h1c-.312 3.5-.312 3.5-1 7h-2l-1 5-1 4h-2v6l-2 3v4l-5 3c-1.477 2.883-1.477 2.883-2.625 6.125-1.164 3.258-1.164 3.258-2.375 5.875l-3 1c-.418 2.32-.736 4.658-1 7-.9 3.378-1.895 6.684-3 10h-2q-.524 4.998-1 10c-2 4-2 4-4 5-.608 3.353-.96 6.708-1.34 10.094L409 311l-3 1-1 5c-3.34-13.359 9.068-35.254 14-48l1.559-4.187C424.512 254.42 429.69 244.756 435 235c.63-1.17 1.258-2.34 1.906-3.547 1.926-3.567 3.844-7.078 6.094-10.453"/><path fill="#c97050" d="M559 446h1a243 243 0 0 1-.375 8.688l-.273 4.886C559 464 559 464 558 469c-1.068 15.594-1.045 31.195-.98 46.816.05 21.034-.43 42.061-.868 63.09-.277 13.592-.277 13.592.848 18.094-1 5-1 5-4 9q-.042-7.625-.062-15.25l-.026-4.379-.01-4.2-.016-3.871C553 575 553 575 554 571c.074-2.418.087-4.839.066-7.258l-.03-4.52-.044-4.917-.05-10.434q-.044-8.173-.113-16.346c-.45-54.872-.45-54.872 5.171-81.525"/><path fill="#d07151" d="M857 843c-3.749 9.372-10.53 17.323-17 25h-2v2h-2v2c-2.505 2.072-5.08 4.058-7.687 6l-4.325 3.25C820 884 820 884 815 886l1-4 6-1 1-4h2l2-4-4-2 1-3h4l1-4c2.438-3.25 2.438-3.25 5-6h2v3c3.5.313 3.5.313 7 0v-2l-3-1h5v-3l4-1q.516-3.998 1-8c4-3 4-3 7-3"/><path fill="#d28b73" d="M454 831c0 3 0 3-1 5.75-1.113 3.617-1.29 6.486-1 10.25l2 2-2 3h2c-1 4-1 4-4 9l-3 1c1 5.5 1 5.5 3 11l5 1a194 194 0 0 1 2 9l5 1c1.313 3.563 1.313 3.563 2 7-9.716-4.858-15.396-12.294-18.875-22.5-2.53-12.37-.477-23.583 5.875-34.5z"/><path fill="#ce7050" d="M614 717h1c.225 4.801-.262 9.072-1.312 13.75l-.739 3.36c-2.317 9.498-5.1 18.152-9.074 27.077l-1.379 3.174A342 342 0 0 1 599 772h-1c-.365-6.452-.365-6.452 2-10 .397-2.658.737-5.325 1-8-1 1-1 1-2 3l-1-5h-2v2h-2c-.812-4-.812-4-1-8h3l1 3 3-5h2v-2h2v-2h2l1-2 2-3c1.75-3.187 1.75-3.187 3-6h-2c.364-8.364.364-8.364 4-12"/><path fill="#c77457" d="M470 488h1c.142 4.638.214 9.26.238 13.898l.025 4.397q.02 4.66.032 9.317c.017 4.625.06 9.248.105 13.872.137 25.993-1.557 52.103-7.4 77.516h-1c-1.006-24.984-1.006-24.984 3-35 1.173-4.69 1.059-8.791 1-13.625-.11-9.153-.11-9.153 1-11.375 1.138-15.41 1.092-30.864.963-46.305l-.026-4.125-.035-3.695C469 490 469 490 470 488"/><path fill="#d28368" d="M419 725h3c-5.483 13.708-14.47 26.034-23 38l-2.145 3.14C395 768.75 395 768.75 392 772l-3-4 1-2 2 1 1-4h2v-2h3l.5-4 .5-4h3l-1-3 1-4h-2v-2h2c2-4 2-4 3-7h4l-1-3 5-1a154 154 0 0 0 2-7l3 1z"/><path fill="#d28c72" d="M531 864h2c-1.99 7.96-10.936 13.828-17 19l-2.855 2.555-3.082 2.695-2.84 2.516c-7.29 5.054-14.53 5.665-23.223 5.672l-5.625.058c-5.607-.517-9.432-1.857-14.375-4.496v-1h6v2c3 .75 3 .75 6 1v-2h2v-2c3.938-.187 3.938-.187 8 0l1 1c7.352.368 13.175.142 20-3l2-5h2v-2h3v-3l3-1 2 1 1-5h4l-1-4h4v-2h4z"/><path fill="#e0b19e" d="M212 617h1c1.327 9.277 1.152 18.584 1.125 27.938l-.01 5.14a1792 1792 0 0 1-.49 35.86l-.093 4.595c-.04 1.38-.078 2.76-.118 4.182l-.095 3.691L213 701h-2l-1 5-1.062 4.25c-.938 4.75-.938 4.75-.875 9.063-.113 8.429-2.525 17.045-6.063 24.687l-4 2a472 472 0 0 1 4.157-17.511c7.794-30.476 10.064-60.302 9.843-91.739q-.038-5.632-.062-11.266l-.036-4.946z"/><path fill="#d28368" d="M460 608h3c-1.585 16.441-6.434 32.564-11.25 48.313l-1.07 3.508A367 367 0 0 1 448 668h-1a371 371 0 0 1-1-9.812c-.894-9.87-.894-9.87-2-13.188l4-1c.61-2.723.61-2.723.75-6.062L449 632l1 2c4-1 4-1 6-4l.5-5.687.5-5.313h2v-4h2l-.562-3.5z"/><path fill="#cd7151" d="M833 516h1l1.438 5.5L837 527h2c1.006 2.367 1.006 2.367 2.059 5.66l1.17 3.596 1.208 3.807q1.182 3.675 2.372 7.347l1.128 3.493C848 554 848 554 849.847 558.183 851 561 851 561 850 564l-2.312-3.687L845 557l-3 3c-4-2-4-2-5.875-7.5L835 547l2-2h-1c.228-4.175.59-8.334.941-12.5.02-1.155.04-2.31.059-3.5h-2c-1.686-4.682-2-7.915-2-13"/><path fill="#cf8368" d="M155 406h2q1.026 4.494 2 9l2 2v7h2c1.869 4.321 3.565 8.64 5 13.125 1 2.875 1 2.875 3.063 7C173 448 173 448 174 452l2-1v5h2l1 10h2v3h2c-.356 4.767-1.062 9.312-2 14-3.054-4.58-4.551-9.775-6.375-14.937l-1.307-3.686c-3.69-10.472-7.277-20.979-10.818-31.502l-1.564-4.613c-4.924-14.75-4.924-14.75-5.936-22.262"/><path fill="#ce8165" d="M871 780c4.9 7.35 2.703 20.202 1.16 28.535-3.298 11.803-7.772 24.614-15.16 34.465l-.437-4.312C856 834 856 834 855 831l3-1c1.102-4.06 2-7.783 2-12l5-3c4.886-7.782 5.447-16.06 5-25h-2c-.812-3.562-.812-3.562-1-7l3 1z"/><path fill="#d69b84" d="M574 143c5.66 5.049 8.276 10.47 9 18 .53 11.001-.911 22.22-8.418 30.746l-2.77 2.691-2.949 2.868c-8.93 8.407-8.93 8.407-13.863 11.695-1-4-1-4 0-6h4l1-4 3-3 2 1v-2h2v-2l4-1v-3h2v-4h2v-2h2q.062-5.5 0-11l1-1c.288-2.682.506-5.371.688-8.062l.324-4.473L579 155h-2a522 522 0 0 1-1-8z"/><path fill="#cf7859" d="m291 778 2 1v4l-5 3-1 2h-2l-1 3h-2l2 4-4-1-3 1v2c-5 2-5 2-8 2l-1 3-5 2c.261-3.007.601-6.008 1-9l-3-1v-3l-3-1 1-3q2.992-.55 6-1v-2c2.938-1 2.938-1 6-1 1.662 3.91 1.032 5.914-.437 9.875L269 796l4.25-2.875C278 790 278 790 282 788v-2a320 320 0 0 1 8-7z"/><path fill="#eacbba" d="M647 416h1c-.639 10.397-1.778 20.74-2.895 31.096-1.57 14.824-2.334 29.562-2.668 44.467l-.13 5.636c-.33 15.664-.337 31.317-.29 46.984.02 10.718-.064 21.417-.455 32.13l-.119 3.378A240 240 0 0 1 641 587h-1a202 202 0 0 1-.13-7.817l-.009-5.187.006-5.7-.003-5.851q-.002-6.18.006-12.36.006-7.792-.004-15.585c-.02-21.854.097-43.668 1.134-65.5l.237-5.422c.212-4.673.451-9.344.7-14.015l.225-4.694.24-4.49.203-3.951C643 433 643 433 645 428q.603-3.144 1.063-6.312z"/><path fill="#dfb1a0" d="M298 554h1c6.946 45.161 10.874 93.845 2 139h-1c-.03-2.26.015-4.522.086-6.781l.133-4.239.156-4.48.133-4.48.14-4.239.13-3.935L301 662h1c.116-4.28.164-8.543.168-12.824l.01-4.02q.007-4.245.007-8.492c.002-4.26.02-8.52.04-12.78.03-15.012.05-30.002-2.225-44.884h-1l-1-11h-1c.066-2.336.204-4.67.375-7l.273-3.937z"/><path fill="#d3957d" d="M299 853c-15.642 15.642-46.145 25.414-67 32l-3-1c5-3 5-3 7-3v-2h6v-4c3-1.187 3-1.187 6-2v-1c10.547-1.226 10.547-1.226 13 0v-3h6v-2h2v-2h6v-2h5v-2h2v-2h3l1-5c4.326-1.442 8.472-1.059 13-1"/><path fill="#d6a28e" d="M148 234h1c.24 5.525-.353 10.47-1.437 15.875-1.256 7.237-1.897 14.356-2.13 21.688l-.118 3.369c-.53 16.187-.674 32.385-.867 48.58a8009 8009 0 0 1-.167 12.62l-.04 3.93c-.043 2.98-.136 5.96-.241 8.938h-1c-4.095-38.196-2.54-77.302 5-115"/><path fill="#ce7353" d="M692 292c-1.917 4.793-4.11 9.24-6.5 13.813l-2.406 4.644L681 314h-2l-1 3.063-1 2.937-2-1v-2h2c.044-3.333.04-6.667 0-10l1-5h-5c0-5 0-5 2-9l5-1 1 2c8.046-2.985 8.046-2.985 11-2"/><path fill="#d49982" d="M299 693h1c-1.51 25.459-8.671 52.7-19 76-1.405-4.215-.417-7.337.375-11.687l.836-4.7L283 749h1l.375-5.25C285 738 285 738 288 734c1.708-4.554 3-8.122 3-13h2v-9h2v-4.312c0-4.688 0-4.688 2-7.688q1.009-3.498 2-7"/><path fill="#d2896f" d="M729 302c2 4 2 4 3 9l4 1v5l-2 2 .938 2.813C736 325 736 325 735 330h-1v-5l-1 2-5 3c-.687 3.688-.687 3.688-1 7h-2c-.263 2.429-.408 4.871-.5 7.313-.28 7.356-.28 7.356-2.5 10.687.734-17.894 3.5-35.454 7-53"/><path fill="#d48d73" d="M257 403c1.765 3.53 2.883 6.659 3.988 10.426l1.136 3.834 1.188 4.053c2.797 9.468 5.638 18.883 9.008 28.167C273 452 273 452 272 455l-1-4-3-1q-.556-4.494-1-9h-2v-3l-5 2-4-3c.2-4.205.98-7.92 2-12 .228-5.936-.1-10.428-2-16 .375-3.375.375-3.375 1-6"/><path fill="#d8a48f" d="M872 139v3l-2.875-2.5C866 137 866 137 864 137v-2l-2.937-.437L858 134l-1-3h-6v-2c-3.535-.047-3.535-.047-8.062.25l-4.536.266L835 130l1 2a273 273 0 0 1-12.75 1.5q-3.618.348-7.234.719l-3.273.31C810 135 810 135 807 137l-5.062 1C797 139 797 139 795 141c-6.64 2.799-12.729 4.56-20 4 24.771-16.514 73.348-26.982 97-6"/><path fill="#d29780" d="m747 828 1 4c-3.187 3.938-3.187 3.938-7 8-3.497 3.875-4.624 6.987-6 12h-2v3h-2v2h-2v2l-4-1c-3 3-3 3-4 6h-2c-.012 3.105-.012 3.105.313 7.188l.3 4.042C720 879 720 879 721 884q5.493 1.039 11 2l-1 4c-4.955 0-8.204-1.963-12-5-3.205-5.341-3.92-7.857-4-14 2.052-8.105 5.585-11.658 11.703-16.809C734.557 846.59 740.952 837.072 747 828"/><path fill="#d1876e" d="M765 791c1.112 4.45.822 7.519 0 12h-2a166 166 0 0 0-2.5 17.563C760 825 760 825 758 828l-4.062 1.5L750 831l-1 3h-2c0-6.048 1.893-9.812 5.11-14.816 5.204-8.764 9.927-18.413 12.89-28.184"/><path fill="#c57257" d="M300 578h1c2.423 16.766 2.28 33.678 2.206 50.576-.019 4.368-.02 8.736-.02 13.104l-.018 8.312-.003 3.967A423 423 0 0 1 303 663h-1a427 427 0 0 0-.437 10.188c-.896 23.145-.896 23.145-4.563 26.812a162 162 0 0 1 0-9h2c.154-5.184-.01-10.343-.125-15.527-.01-4.683.449-9.121 1.11-13.754 1.554-12.309 1.313-24.678 1.276-37.063-.011-4.268 0-8.535.012-12.802q0-4.054-.007-8.108l.012-3.882c-.016-2.956-.135-5.911-.278-8.864h-2c-.128-4.049-.249-7.968 0-12z"/><path fill="#bd775e" d="M386 453h1c.103 3.42.136 6.821.13 10.243l.005 3.301q.004 5.451-.002 10.901 0 3.784.003 7.567.001 7.963-.006 15.925-.006 10.161.004 20.322.005 7.832 0 15.664 0 3.743.002 7.484c.02 26.44.02 26.44-1.136 36.593l-2 1v-3h-2c-.305-5.19-.35-8.3 2-13 2.27-24.366 1.32-49.21 1.526-73.664q.09-10.482.193-20.965l.04-5.595.052-5.095.038-4.508z"/><path fill="#d59d86" d="M758 222c1.947 3.894.048 8.007-1 12l-4 2c.375 3.563.375 3.563 1 7l-2 1-1.5 3.563L749 251h-2v3l-3 1c2.024-7.739 5.048-14.6 8.574-21.777C754 230 754 230 754 227c-6.741 4.754-12.958 9.596-18.906 15.313C733 244 733 244 730 244l1-5h2v-2l6-2v-2h2v-2h4l1-4c3.565-2.377 6.86-2.999 11-4z"/><path fill="#d17d5e" d="m865 193 5 2 2-1c-1.805 3.61-3.533 5.965-6.125 9-5.69 6.848-10.887 14.024-14.875 22-1-2-1-2-1-8h3l-2-4c-2-4-2-4-2-7h6v-4l-2-1h4c.083 2.665.083 5.335 0 8h2v-6h2l-2-5h4z"/><path fill="#d4947c" d="m562 824 1 3 2 1c-1.75 5.316-4.263 8.767-8.125 12.75-3.71 3.912-7.255 7.853-10.625 12.063-3.502 4.346-7.17 8.363-11.25 12.187h-1v-5h2v-3h2v-5q3.01.44 6 1v-4h3l1-4 1-2h2v-2h3l.438-4.812L555 831l4-3 1-3z"/><path fill="#d0886e" d="M473 179c0 5.16-3.265 8.788-6 13h-2l-.437 3-.563 3h-3a212 212 0 0 0-2 10l-2 5h-2l-1 3-3-1-2 4-5 2c2.103-5.258 4.857-9.725 7.938-14.437l1.743-2.676c5.784-8.766 11.875-17.443 19.319-24.887"/><path fill="#cb7152" d="M655 373h1c-.312 4-.312 4-1 8h-2l.063 3.625C653 389 653 389 651.563 391.641c-2.093 4.5-2.255 8.546-2.625 13.484-.65 7.73-1.34 15.281-2.938 22.875l-2 1c-.179-4.48-.23-8.895-.187-13.375l.001-3.89c.046-9.595.046-9.595 1.186-10.735v-4l2-1v-3l-3-2c1-2 1-2 6-4 .27-2.82.27-2.82-.187-6.125L649 375l3 4c1.625-2.75 1.625-2.75 3-6"/><path fill="#e0b4a2" d="M778 681h1c1.23 9.691 1.153 19.369 1.125 29.125l-.01 5.072c-.157 37.886-.157 37.886-3.115 43.803l-.375 3.625c-.745 5.214-2.673 9.495-4.625 14.375l-.5 4.25c-.563 4.224-1.77 6.508-4.5 9.75-1.813-3.626.555-7.618 1.688-11.312 7.459-25.19 9.65-50.228 9.375-76.375q-.043-4.838-.072-9.675c-.017-2.875-.045-5.75-.073-8.625z"/><path fill="#dfab95" d="M250 253h2c-.308 5.652-1.395 11.136-2.437 16.688-3.416 19.456-3.75 38.497-3.577 58.205l.041 5.13.055 4.654L246 341h-1c-1.286-8.133-1.11-16.257-1.062-24.465l.011-4.453q.019-7.01.051-14.02.039-9.263.063-18.527l.025-4.324.01-3.976.016-3.511C244 265 244 265 243 263l5-1c1-1 1-1 1.438-5.062.185-1.3.37-2.6.562-3.938"/><path fill="#d49981" d="M332 730h1c.25 3.313.25 3.313 0 7l-3 3-2 4h-2v3l-3 3h-3v2h-2l-1 4h-2v4l-3 3h-2l-1 5-5 1a362 362 0 0 0-8 8l-3 1v-2a386 386 0 0 1 5.645-4.953C306.003 764.653 311.126 758.44 316 750h2v-2h2l1-4h2l1-4h2l2-4a149 149 0 0 1 4-6"/><path fill="#d18a6f" d="M824 278h2c-1.24 9.234-3.686 18.26-5.879 27.305A268 268 0 0 0 818 315h-3c-.582-3.508-.582-3.508-.812-8.125l-.27-4.57c.09-4.736.985-8.112 3.082-12.305l2 1c.563-2.687.563-2.687 1-6l1-4h2z"/><path fill="#c37053" d="M213 617c2.659 3.988 2.247 6.537 2.243 11.323l.01 5.28-.023 5.729v5.863q-.003 6.15-.024 12.3c-.017 5.248-.021 10.497-.02 15.746 0 5.01-.01 10.02-.018 15.029l-.003 5.71-.02 5.308-.011 4.67c-.115 3.468-.372 6.66-1.134 10.042h-1l-1-5h-2l-.5 5-.5 5h-2c.35-6.29 1.94-12.066 4-18h2c.24-3.189.24-3.189.227-7.71v-5.097l-.032-5.568-.008-5.65q-.016-7.457-.05-14.914c-.02-5.067-.03-10.134-.04-15.202Q213.065 631.93 213 617"/><path fill="#d89a82" d="M210 884c3 1 3 1 4 3q5.505-.973 11-2l4 1a2763 2763 0 0 1-17.125 4.938l-4.848 1.42C193.021 896.33 181.295 897.962 167 895c5.803-1.45 11.468-.859 17.422-.645 5.106-.396 8.224-1.714 12.578-4.355l1-2h3v-2h7z"/><path fill="#d49c86" d="M525 724c1 4 1 4 0 6l2 1h-2q-.51 2.999-1 6l-2 1c-.738 2.312-1.386 4.652-2 7a252 252 0 0 1-3 10l-2 1-1 3h-3a235 235 0 0 0-2 10c-2 4-2 4-5 6l-.375 3.125L503 781h-5c1.742-4.356 3.803-8.13 6.19-12.148C512.668 754.5 518.93 739.496 525 724"/><path fill="#d38d73" d="M875 643c2.676 5.353 3.251 10.831 4.125 16.688l.55 3.474c.96 6.299 1.846 12.454 1.325 18.838l-3 1-2-4-3 1c-.363-2.746-.363-2.746-.312-6.437l.011-3.684L873 667h2c.15-4.023.184-7.978.125-12l-.027-3.469c-.024-2.844-.06-5.687-.098-8.531"/><path fill="#d39983" d="m188 504 4 1c2.533 5.88 3.115 10.663 3 17h2c.816 2.809.816 2.809 1.563 6.438 1.347 6.472 1.347 6.472 2.437 7.562 1.44 7.657 2.269 15.2 2 23-1.962-3.924-2.961-7.346-4.023-11.59l-1.157-4.568-1.195-4.78c-4.367-17.418-4.367-17.418-6.914-25.503C188 507 188 507 188 504"/><path fill="#d4967f" d="M368 648c1.12 4.477.62 7.458 0 12v6l-2 1c-1.217 5.14-2 9.71-2 15l-5 1v6l-3 3-1 4-4 1c.843-4.215 1.798-6.99 3.563-10.812 4.586-10.45 7.918-21.345 11.437-32.188q.995-3 2-6"/><path fill="#cf7e62" d="M876 146c6.494 6.494 6.855 13.128 7.188 22-.357 9.504-3.377 15.95-8.188 24l-3 2-1-5h2v-3h-2c-.375-3.562-.375-3.562 0-7l4 1v-2l2.996.063L881 177c.38-3.916.378-7.125.063-11l-.15-3.14c-.168-2.633-.526-5.251-.913-7.86l-3-1c-.687-4.062-.687-4.062-1-8"/><path fill="#d8a692" d="M148 835c2.034 4.067-.022 8.796-1 13h-3c-.398 3.254-.398 3.254-.375 7.563l-.023 4.253c.412 4.329 1.602 7.263 3.398 11.184v4l2 1v2l4 2 3 5 3 1v2l5 2 3 3-3 1c-10.505-6.734-17.751-13.254-21.812-25.437-2.663-12.474-.86-22.679 5.812-33.563"/><path fill="#d69b84" d="M679 314c1 3 1 3-.844 7.184l-2.656 5.253c-5.672 11.481-10.21 23.275-13.625 35.633L661 365h-1c.039-2.773.158-5.544.313-8.312l.238-4.676C661 348 661 348 663 345h2v-6l1-4v-5l2 1 1-2h2l1-5 1-3 3-1c1.688-3.062 1.688-3.062 3-6"/><path fill="#d7a18a" d="M756 154c-6.75 4-6.75 4-9 4v3h-3v2h-3v2l-9 2v2l-3.437.438L725 170l-1 3h-3v2l-5 2-1 2h-6c6.32-6.987 14.79-10.615 23-15l5.746-3.129 5.692-3.059 2.744-1.496c6.474-3.43 6.474-3.43 9.818-2.316"/><path fill="#d4987f" d="M373 792c0 3 0 3-3 6.328-6.529 6.401-13.021 12.758-20 18.672-5.341 4.968-5.341 4.968-7.898 7.375L340 826l-2-1c1.125-3.062 1.125-3.062 3-6h4v-3h2l1-3h2v-2h4v-6l2-1 2 1v-2h4l1-4 1-2h2v-2h2l1-2h3z"/><path fill="#e2b9a6" d="M477 395h1c-.042 2.21-.167 4.419-.312 6.625l-.301 4.8q-.403 5.78-.867 11.555c-1.526 19.675-1.919 39.326-2.178 59.05l-.05 3.396q-.045 3.206-.077 6.412A276 276 0 0 1 474 494h-1a132 132 0 0 1-.13-6.327l-.009-4.19.006-4.592-.003-4.69q0-4.938.006-9.876.006-7.515-.007-15.032 0-4.795.004-9.59l-.006-4.518c.018-8.115.136-16.126 1.139-24.185h2c.122-2.476.12-4.959.063-7.437A254 254 0 0 1 476 396z"/><path fill="#dbac96" d="M731 890c2.502.066 5.003.204 7.5.375l4.219.273L746 891v1c4.594.919 8.454 1.13 13.117 1.133l4.778.004 4.98-.012 4.957.012 4.785-.004 4.363-.004c3.759-.12 7.324-.44 11.02-1.129v-1q4.5-.063 9 0c-21.66 10.83-49.656 6.396-72 0z"/><path fill="#d79f89" d="M541 668h1a126 126 0 0 1-.375 6.25l-.273 3.516C541 681 541 681 540 685h1v5h-2c-.37 2.328-.69 4.663-1 7-.85 4.066-1.874 7.993-3 12h-2v2h-2c-.195 3.09-.381 6.182-.46 9.277L530 723l-4 1c1.147-5.733 2.92-11.188 4.688-16.75 3.29-10.468 6.077-20.977 8.496-31.679.576-2.53 1.192-5.052 1.816-7.571"/><path fill="#d8a28d" d="M246 344h1a782 782 0 0 1 1.688 12.813c1.52 11.775 3.67 23.255 6.469 34.792 1.939 8.108 1.939 8.108.843 11.395l-3-1q-.061-3.5 0-7l-2-2c-.597-2.86-1.105-5.74-1.562-8.625A314 314 0 0 0 248 376h-1c-.976-10.63-1.227-21.333-1-32"/><path fill="#ce937c" d="M397 342h1a415 415 0 0 1-.375 11.938l-.133 3.443c-.365 8.492-.365 8.492-1.492 9.619-.373 2.14-.699 4.287-1 6.438-.892 6.345-.892 6.345-2 8.562l-.5 5.063C392 392 392 392 391 393c-.58 4.17-1.032 8.35-1.5 12.535L389 409h-1c-.235-11.803 1.664-23.548 3.375-35.187l.633-4.314c2.835-18.73 2.835-18.73 4.992-27.499"/><path fill="#d3896e" d="m490 323 2 1c-.474 6.888-2.447 13.724-4 20.438l-.828 3.662A435 435 0 0 1 485 357h-1a484 484 0 0 1 0-11l-2 4-2-2v-2l-2-1c.9-2.702 1.942-5.356 3-8l2-1 2-4h2l1.5-4.562z"/><path fill="#d8a691" d="m211 137 2 1c-2.281 4.22-4.205 5.075-8.75 6.75-6.478 2.776-8.778 5.914-13.25 11.25h-3l-1 4h-2v2h-2l-2 4c-2.835 3.92-5.577 7.577-9 11l-1 3h-2c3.47-15.819 22.07-30.46 35-39 4.063-2.562 4.063-2.562 7-4"/><path fill="#dba893" d="M470 547h1c.398 8.969-.737 17.732-1.812 26.625l-.502 4.371c-1.156 9.723-2.45 19.461-4.686 29.004h-1c-1.02-25.306-1.02-25.306 3-35 2.133-5.333 2.576-9.607 3.063-15.312.278-3.233.58-6.463.937-9.688"/><path fill="#d1937c" d="M483 357h1c-.517 8.458-1.598 16.762-2.937 25.125l-.514 3.398C479.24 393.76 479.24 393.76 477 396c-.389 3.93-.508 7.843-.656 11.79L476 411h-2c-.16 2.625-.16 2.625-.062 6 .053 2 .083 4 .062 6h-1c-.102-2.227-.13-4.458-.125-6.687l-.008-3.762C473 409 473 409 474 404q.184-3.124.313-6.25c.668-10.213 2.886-20.248 6.687-29.75q1.005-5.5 2-11"/><path fill="#d4967d" d="M551 209h4c0 2 0 2-2.062 4.188a418 418 0 0 1-6.063 5.687c-4.645 4.945-8.487 10.279-12.422 15.797C532 238 532 238 529 241c-.25-4.375-.25-4.375 0-9l4-2c1-4 1-4 1-7l4-1 1-2 3-1 1-2 4-1c2-2 2-2 4-7"/><path fill="#d6a18b" d="M184 779h1c-.312 3.5-.312 3.5-1 7h-2a522 522 0 0 0-1 8l-2 4h-2v2h-2l-1.312 4.688c-1.668 5.248-2.657 6.87-6.688 10.312l-2.125 2.75C163 820 163 820 160 821c1.794-4.486 3.63-7.525 6.375-11.437 5.14-7.566 9.5-15.429 13.777-23.5A483 483 0 0 1 184 779"/><path fill="#d8a794" d="M155 406h2q1.026 4.494 2 9l2 2v7h2c4.482 9.582 9 21.386 9 32l3 1c-.312 3.063-.312 3.063-1 6-7.388-11.082-10.472-26.372-14.437-39l-1.362-4.32-1.26-4.055-1.134-3.648C155 409 155 409 155 406"/><path fill="#d8a08c" d="M144 351h1c.773 3.045 1.425 6.109 2.086 9.18C148 363 148 363 151 365c.477 4.367.477 4.367.625 9.875l.2 5.723L152 386c.206 4.044.517 7.977 1 12h2c.083 2.665.083 5.335 0 8-2.585-5.17-3.668-10.523-4.937-16.125l-.804-3.52c-5.699-25.38-5.699-25.38-5.259-35.355"/><path fill="#d4967e" d="m503 283 3 1c-.812 4.061-1.81 7.503-3.215 11.367l-1.33 3.684-1.392 3.824q-1.362 3.745-2.715 7.492l-1.219 3.347a124 124 0 0 0-2.213 7.2L493 324h-1c-.32-2.993-.555-5.996-.75-9l-.36-5.062L491 306c3 0 3 0 5 1a149 149 0 0 0 2-9l1-5h2l.938-5.062z"/><path fill="#d2947d" d="M443 221h1c-.312 3.5-.312 3.5-1 7h-2l-1 5-1 4h-2v6l-2 3v4l-5 3-2 4c-1.721-3.442-.057-6.44 1-10 3.976-9.01 8.689-17.71 14-26"/><path fill="#ddaf99" d="m693 189 2 1c-2 3-2 3-5.437 4.813-3.957 2.429-4.728 4.059-6.563 8.187l-3 1c-4 4-4 4-5 7l-5 1-3 4-5 3a276 276 0 0 0-7 7c0-3 0-3 2.195-5.523l2.93-2.852c1.005-.98 2.01-1.96 3.047-2.969 2.851-2.678 5.788-5.195 8.828-7.656l2.25-2.277c3.002-2.972 6.145-5.689 9.375-8.41l3.414-2.887C690 191 690 191 693 189"/><path fill="#d2896f" d="M327 829h3v2l2 1c-2.643 2.045-5.37 3.983-8.125 5.875l-4.695 3.242L315 844l-4 3-2-1 1-3h3q.526-3.496 1-7c3-3 3-3 8.188-3.5L327 832z"/><path fill="#d2957d" d="M729 245v3l-3 3h-2v2h-2v2l-2.078 1.57c-5.356 4.454-9.052 10.46-13.156 16.047L704 276c-1-2-1-2-.187-5.625L705 267h2v-2h2l.938-3 1.062-3h3v-2h3v-2l-2-1 2-3 3.125-.5L723 250v-3l5-1z"/><path fill="#d9a48f" d="m563 132 1 2-5.125-.937L553 132l-3.687-.687L547 131v1c-4.685.298-9.371.451-14.062.621-6.257.48-11.326 1.573-16.938 4.379 10.879-12.198 33.305-12.51 47-5"/><path fill="#d99d86" d="m291 778 2 1v4l-5 3-1 2h-2l-1 3h-2l2 4-4-1-3 1v2c-3.158 1.263-5.586 2-9 2l-3 2c.875-3.062.875-3.062 2-6l2 1a337 337 0 0 0 9-6l4-2v-2a320 320 0 0 1 8-7z"/><path fill="#d29077" d="M607 741h2c1.4 4.787.75 7.584-1.273 12.055l-1.5 3.36-1.602 3.46-1.578 3.531c-1.304 2.886-2.67 5.743-4.047 8.594h-1c-.365-6.452-.365-6.452 2-10a1044 1044 0 0 0 1.434-8.969c.682-3.654 1.786-6.767 3.566-10.031h2z"/><path fill="#d59d87" d="m751 568 1 2h2q1.506 4.999 3 10l2.063 3.563c3.733 6.624 3.937 13 3.937 20.437l2 1-2 4c-3.18-9.44-6.319-18.894-9.375-28.375l-1.523-4.71C751 572 751 572 751 568"/><path fill="#daa793" d="M824 477h1a374 374 0 0 1 2.063 8.875c2.324 10.068 5.222 19.86 8.433 29.68 2.608 8.133 2.608 8.133 1.504 11.445-2.06-3.934-3.7-7.754-5-12l-1.125-3.562C830 508 830 508 830 503h-3c-2.524-5.187-2.438-10.7-2.687-16.375l-.262-5.46z"/><path fill="#daa792" d="M743 255c1 4 1 4-.312 7.25-2.02 5.683-2.516 11.06-3.063 17.043C739 283 739 283 736 288l-1.062 4.313L734 296h-2l1 5-3 1c.151-7.767 2.938-15.396 5.063-22.812q1.116-3.914 2.222-7.833l.996-3.48C739 265 739 265 739 262h2l1-5z"/><path fill="#d59d87" d="M160 196c1.244 4.976.314 8.088-1 13l-2 3c-.612 3.41-1.017 6.823-1.437 10.262L155 225h-2v3.75c0 4.25 0 4.25-2 8.25-2.952-4.428-1.92-6.727-1-12 2.567-10.02 5.812-19.547 10-29"/><path fill="#d2896e" d="M871 780c4.345 6.517 2.522 16.466 2 24-3.116 15.116-3.116 15.116-7 19 1.702-12.89 1.702-12.89 3.125-18.187 1.17-5.1 1.136-9.586.875-14.813h-2c-.812-3.562-.812-3.562-1-7l3 1z"/><path fill="#d0896d" d="M305 141c4 4 4 4 4.5 9.813-.176 5.324-1.106 8.92-4.5 13.187h-3l2-5c.389-2.993.73-5.994 1-9l-2 1c-.625 3.063-.625 3.063-1 6l-2-4h-2v-3c4-3 4-3 6-3v-5z"/><path fill="#d4967d" d="M297 165h5v2a2460 2460 0 0 1-5.715 4.887c-5.624 5.2-9.936 11.556-14.223 17.863L279 194c-1-2-1-2 0-6h2v-4h2v-4h2l-1-4 5-1 1-2h3l1-4z"/><path fill="#d59a82" d="M480 804v3l-4 4a201 201 0 0 0-3 6l-2 2v4h-3v2l-5 2 2 2-1 2q-4.5.125-9 0c2.582-3.287 5.089-6.073 8.313-8.75 3.814-3.362 6.718-6.901 9.82-10.902 2.11-2.653 4.395-5.03 6.867-7.348"/><path fill="#d3957d" d="M857 843c-3.749 9.372-10.53 17.323-17 25h-2v2l-2-1c.188-3.062.188-3.062 1-6h3v-2h3v-2l-3-1h5v-3l4-1q.516-3.998 1-8c4-3 4-3 7-3"/><path fill="#d4957c" d="M619 699h2c1.23 14.762-3.642 28.5-9 42l-2 2a614 614 0 0 1 2.5-11.812c.836-3.859 1.545-7.575 2-11.5.605-4.465 2.077-8.42 3.5-12.688l.563-4.562z"/><path fill="#d89e89" d="M838 527c3.004 4.507 4.285 9.632 5.938 14.75 3.716 11.472 3.716 11.472 5.878 16.328C851 561 851 561 850 564c-3-4-3-4-3-9l-4-1c-3.7-9.09-5-17.192-5-27"/><path fill="#deaa96" d="m747 828 1 4c-3.187 3.938-3.187 3.938-7 8-3.497 3.875-4.624 6.987-6 12h-2v3h-2v2h-2v2l-4-1c-3.25 2.438-3.25 2.438-6 5 2.19-4.379 4.914-6.555 8.567-9.712 4.018-3.778 7.15-8.143 10.37-12.6l1.995-2.706c2.417-3.288 4.804-6.586 7.068-9.982"/><path fill="#d9a38d" d="m739 527 2 3 2 2 2 7 2.063 4.125c2.405 6.052 2.623 11.438 2.937 17.875.305 2.337.621 4.674 1 7-3.525-5.287-4.76-11.635-6.562-17.687l-1.249-4.092C741.272 539.82 739.49 533.7 739 527"/><path fill="#e5bcab" d="M815 315h2c-.22 4.035-.56 7.987-1 12l-.355 3.287q-.373 3.408-.749 6.814c-1.521 14.019-2.328 27.944-2.605 42.043A658 658 0 0 1 812 389h-1c-.277-5.013-.19-10.043-.187-15.062l.002-4.598a568 568 0 0 1 1.06-31.965l.238-4.074c.213-3.107.536-6.207.887-9.301h2z"/><path fill="#d89f89" d="M851 564c3.715 5.573 5.452 12.218 7.688 18.5l1.587 4.363 1.487 4.168 1.374 3.83C864 598 864 598 863 601l-1.875-3-2.125-3h-2c-.228-2.992-.446-5.986-.559-8.984C856 583 856 583 853 579c-2-5-2-5-1-10h-3v-3h2z"/><path fill="#e1b5a3" d="M148 234h1c.24 5.525-.353 10.47-1.437 15.875-1.66 9.272-2.03 18.397-2.184 27.792-.06 2.78-.21 5.558-.379 8.333h-2a400 400 0 0 0 0 10h-1c-1.74-20.274 1.9-42.169 6-62"/><path fill="#d89982" d="M279 130c9.218.188 21.312 3.387 28 10l1 4-2.437-3c-6.196-4.074-10.949-3.34-18.188-2.918L284 138l1-3h-2l-1-2-3-1z"/><path fill="#c77356" d="M638 584h1a491 491 0 0 1-.375 13l-.133 3.758A417 417 0 0 1 638 610h-1a583 583 0 0 0-.518 14.648c-.27 8.14-.27 8.14-2.482 10.352a4629 4629 0 0 1-.125-19l-.05-5.492-.02-5.196-.032-4.824L634 597h2c.396-2.992.723-5.994 1-9z"/><path fill="#dba690" d="M263 213h4c-.473 2.266-.473 2.266-2 6l-2.059 5.484q-1.782 4.702-3.576 9.399c-1.864 4.924-3.62 9.824-5.088 14.883L253 253h-1c-.143-4.286-.044-7.825 1-12h2c1.654-4.644 3-8.73 3-13.687 0-5.424 2.617-9.547 5-14.313"/><path fill="#d28d73" d="m865 193 5 2 2-1c-1.85 3.702-3.742 6.284-6.375 9.438-2.908 3.496-5.795 7.002-8.625 10.562v-5h2v-6h2l-2-5h4z"/><path fill="#daa792" d="M864 601c2.676 2.676 2.963 4.999 3.91 8.66l1.06 4.096 1.092 4.307 1.104 4.224c1.77 6.905 3.317 13.578 3.834 20.713l-1-2h-2a285 285 0 0 1-2-9l-1-1q-.523-3.998-1-8l-1-4-.437-3.312C866 612 866 612 864.938 608.313 864 605 864 605 864 601"/><path fill="#e6bfad" d="M560 428h1c.101 2.811.13 5.625.125 8.438l.008 4.746C561 445 561 445 560 446c-2.21 12.437-3.46 24.94-4.353 37.53-.183 2.492-.41 4.982-.647 7.47h-1c-.26-9.087.398-17.964 1.313-27l.405-4.092c1.089-10.666 2.204-21.382 4.282-31.908"/><path fill="#d38f75" d="M419 725h3c-1.855 4.637-3.993 8.545-6.562 12.813l-2.442 4.082L411 745h-1q-.514-4.499-1-9l-1-2 5-1a154 154 0 0 0 2-7l3 1z"/><path fill="#d8a894" d="M771 635h2c4.632 14.596 5.716 29.77 5 45h-1a124 124 0 0 1-.902-5.957l-.51-3.814-.525-4.042c-1.933-14.714-1.933-14.714-3.192-21.324C771 640 771 640 771 635"/><path fill="#c17b61" d="M559 446h1a243 243 0 0 1-.375 8.688l-.273 4.886C559 464 559 464 558 469a939 939 0 0 0-.605 16.357A449 449 0 0 1 557 494h-1c-.214 2.663-.37 5.331-.5 8s-.286 5.337-.5 8h-1c-.835-12.178.314-24.375 1.375-36.5l.382-4.404c.718-7.793 1.597-15.44 3.243-23.096"/><path fill="#d2876c" d="M168 812c1 4 1 4 0 6l4 3-3 2-2-2-3 1-1 3-3 1-2 3-5 2v3l-4 1c3.128-7.82 7.908-12.745 15-17 2.313-3.187 2.313-3.187 4-6"/><path fill="#e9c6b5" d="m515 137 1 3c-1 2-1 2-6 4l-3.5 4c-3.5 4-3.5 4-8.5 6-2.719 2.39-2.719 2.39-5.5 5.25l-2.895 2.973c-2.659 2.834-5.207 5.717-7.605 8.777 0-4.033 1.609-5.835 4-9h2v-2h2v-2h2v-2c2.18-1.832 4.42-3.59 6.688-5.312 3.58-2.725 6.975-5.348 10.144-8.543C511 140 511 140 513 140v-2z"/><path fill="#d59983" d="M455 638c1.104 4.416.708 5.84-.617 10.078l-1.09 3.516-1.168 3.656-1.145 3.703c-.95 3.03-1.96 6.04-2.98 9.047h-1c-.18-2.871-.268-5.748-.312-8.625l-.114-4.852L447 651l4 2c.188-4.75.188-4.75 0-10l1-2h3z"/><path fill="#ddb19d" d="M659 365c1.54 4.618-.265 7.996-1.625 12.625-2.807 9.78-4.946 19.6-6.813 29.6A413 413 0 0 1 649 415h-1c.012-3.21.112-6.419.25-9.625l.203-5.414c.507-4.601 1.316-7.027 3.547-10.961q.516-3.998 1-8h2l-.062-5.5.062-5.5h3z"/><path fill="#d28e74" d="M692 292c-1.79 4.473-3.802 8.566-6.062 12.813l-2.16 4.082L682 312h-1c-.187-3.5-.187-3.5 0-7h2v-2h2l-1-3-5 1v-2l4-1 1-3 1-3c4-1 4-1 7 0"/><path fill="#d5967d" d="m447 871 2 2 3.063.375L455 874a194 194 0 0 1 2 9l5 1c1.313 3.563 1.313 3.563 2 7-7.901-3.95-12.52-9.46-17-17z"/><path fill="#d49d88" d="M197 747c1 4 1 4 1 10l-2 2a108 108 0 0 0-2.062 5.875l-1.036 3.18c-.703 2.295-1.32 4.616-1.902 6.945-2.5 2.375-2.5 2.375-5 4l-1-2c1.148-3.011 2.396-5.985 3.688-8.937 3.002-6.964 5.821-13.903 8.312-21.063"/><path fill="#c87152" d="M255 234h2c-1 5-1 5-2 7h-2c-.344 2.625-.344 2.625-.5 6s-.156 3.375-.5 6h-2a256 256 0 0 0 0 8l-1 1-.5 4.063L248 270h-1a162 162 0 0 1 0-9l1-1c.073-4.311-.004-8.614-.062-12.926C248 243 248 243 249 239l4 1v-3h2z"/><path fill="#d3937b" d="M390 772c0 4.622-2.77 6.577-5.75 10l-3.234 3.75C378 789 378 789 374 792c-.125-3.5-.125-3.5 0-7h2l1-2h2l1-4h3l-1-4c3.938-1.937 3.938-1.937 8-3"/><path fill="#dfb19d" d="m318 748 2 1c-1.25 3.563-1.25 3.563-3 7h-2v4l-3 3h-2l-1 5-5 1a362 362 0 0 0-8 8l-3 1v-2a386 386 0 0 1 5.645-4.953C306.003 764.653 311.126 758.44 316 750h2z"/><path fill="#dcae9c" d="M812 393h1c.362 4.043.667 8.076.938 12.125.664 9.374 1.632 18.582 3.062 27.875v5c-2-3-2-3-2-5h-2c-1.303-8.495-1.15-17.052-1.125-25.625l-.012-4.2.004-3.964.004-3.616z"/><path fill="#c37257" d="M150 232h1c.987 23.026.987 23.026-3 31h-2v5h-1c-.421-7.26.795-14.234 1.938-21.375.09-.594.09-.594.552-3.598 1.372-8.752 1.372-8.752 2.51-11.027"/><path fill="#cf8f76" d="M571 189h2c-1.255 6.274-4.435 8.887-8.937 13.063l-2.249 2.2c-2.154 2.022-2.154 2.022-5.814 4.737l-2-4 1-2h4l1-4 3-3 2 1v-2h2v-2l4-1z"/><path fill="#e2baab" d="M279 130c-1.038-.01-2.076-.02-3.146-.032-4.743-.042-9.486-.067-14.229-.093-1.633-.017-3.266-.034-4.95-.05-8.172-.034-15.762.034-23.675 2.175l-1 1q-4.5.062-9 0c14.544-7.272 41.254-10.373 56-3"/><path fill="#dbab96" d="M576 361c1.314 5.255-.286 7.885-2 13-.858 5.564-1.508 11.13-2.156 16.723L571 395h-3c-.625 3-.625 3-1 6h-1c.483-7.07 2.046-13.743 3.875-20.562l.777-2.999c1.484-5.617 3.204-11.04 5.348-16.439"/><path fill="#cf866b" d="m811 885 4 1c-5.495 5.495-12.633 5.454-20 6v1c-6.69 1.158-13.234 1.154-20 1v-1a246 246 0 0 1 7.875-1.5c7.918-1.396 7.918-1.396 10.125-2.5 3.673-.03 7.336.068 11.008.16L807 889v-2h4z"/><path fill="#d19680" d="M206 720h1c.886 8.415-1.437 16.414-5 24l-4 2c1.204-5.72 2.562-11.397 4-17.062l1-3.973 1-2.965h2z"/><path fill="#daa792" d="M381 579h1c.102 3.249.13 6.5.125 9.75l.008 5.484C382 599 382 599 381 603c.03.63.03.63.188 3.813-.216 4.807-1.49 7.261-4.188 11.187h-1c.648-8.412 1.856-16.768 3-25.125l.54-4.055.522-3.828.473-3.489z"/><path fill="#d59e88" d="M273 455c2.948 4.423 4.149 9.396 5.688 14.438l1.01 3.181c2.422 7.902 2.422 7.902 1.302 12.381v-2h-2c-.965-2.527-.965-2.527-1.937-5.937-1.179-4.077-2.411-8.011-3.875-12-1.169-3.997-1.303-6.108-.188-10.063"/><path fill="#cc8065" d="M386 553h1c.474 9.18.411 18.908-1 28l-2 1v-3h-2c-.305-5.19-.35-8.3 2-13q.55-5.495 1-11z"/><path fill="#dca995" d="M290 514h1c1.372 5.52 2.428 11.115 3.563 16.688l.998 4.787.943 4.6.87 4.236C298 548 298 548 298 553h-1l-1 5h-1c.033-3.093.07-6.186.16-9.277L295 546l-2-1 1-5-1.375-3.75c-2.263-7.31-2.59-14.616-2.625-22.25"/><path fill="#d59e88" d="m849 225 1 2c-1.272 2.481-2.646 4.91-4.062 7.313-3.665 6.34-6.914 12.698-9.844 19.406L835 256h-1c.313-4.5.313-4.5 1-9h2v-5h2v-3h2v-3h2v-4h2v-6z"/><path fill="#cf9077" d="M747 226h2c-1.135 5.675-1.858 6.165-6.25 9.5-3.048 2.34-5.817 4.57-8.484 7.344L732 245l-2-1 1-5h2v-2l6-2v-2h2v-2h4l1-4z"/><path fill="#d9a792" d="M473 179c0 5.16-3.265 8.788-6 13h-2l-.375 2.875L464 198l-4 2-1 2h-2v2h-2c2.161-5.403 4.88-9.033 8.438-13.625l3.496-4.54C470 182 470 182 473 179"/><path fill="#d08266" d="M273 202c-2.973 7.432-2.973 7.432-5 11l-3 1-2-1v5l-1-2-2-1c1.125-4.187 1.125-4.187 3-8l4 2-2-4v-3c4-1 4-1 8 0"/><path fill="#ce846b" d="m485 169 1 4h-2l-1 4-1 2-5 1-4 4-2-1 2-2 2-5c3.308-3.844 5.148-5.06 10-7"/><path fill="#cc7454" d="m738 882 3 1 .875 2.938L743 889l5 2 1 2-4-1a814 814 0 0 0-10.883-1.402C731 890 731 890 729 888a238 238 0 0 1 8-4z"/><path fill="#d4927b" d="m597 772 1 2c-1.16 2.666-2.43 5.285-3.75 7.875l-2.172 4.305C590 790 590 790 587 794v-5h2l-.5-3-.5-3h2v-7h2v-2z"/><path fill="#dcaf9d" d="M639 589h1c.591 9.996-.39 19.945-1.437 29.875l-.409 4.145c-.757 7.397-.757 7.397-1.154 9.98h-1a453 453 0 0 1-.125-12.5l-.012-3.613c.004-2.963.065-5.925.137-8.887h1a314 314 0 0 0 .5-8.937c.39-8.953.39-8.953 1.5-10.063"/><path fill="#dba68f" d="M624 262c0 4.473-.992 8.983-3 13l-5 2c-1.72 3.82-2.887 7.591-4 11.625L611 291l-3-2c3.627-9.068 8.972-19.972 16-27"/><path fill="#d79d89" d="M282 485c3.5 3.5 3.939 8.74 5.125 13.438l.84 3.22C290 509.583 290 509.583 290 513h-2v-4h-3c-2.045-5.238-2.366-10.36-2.625-15.937l-.227-4.59z"/><path fill="#d8a18c" d="M587 330c2 8 2 8 0 12h-3l.063 4.938L584 352l-4 1v5l-3 2c2.277-10.45 5.985-20.1 10-30"/><path fill="#e0b4a1" d="M868.125 135.563 872 139v3l-2.875-2.5C866 137 866 137 864 137v-2l-2.937-.437L858 134l-1-3h-6v-2c-3.331-.122-6.667-.12-10-.062a451 451 0 0 1-10 .062v-1c13.512-2.29 25.91-.7 37.125 7.563"/><path fill="#e0b5a3" d="M876 146c6.494 6.494 6.855 13.128 7.188 22-.24 6.377-1.339 11.302-4.188 17-1.45-2.9-.736-4.921 0-8h2c.063-3.684-.008-7.263-.187-10.937l-.096-3.155c-.12-2.644-.405-5.28-.717-7.908l-3-1c-.687-4.062-.687-4.062-1-8"/><path fill="#daac98" d="m730 488 2 4 1 1 .375 3.563c.64 4.55 1.98 8.162 3.625 12.437 1.647 6.154 2.202 11.634 2 18-2.926-5.852-4.104-12.033-5.625-18.375l-.984-3.984-.93-3.852-.85-3.51C730 494 730 494 730 488"/><path fill="#cf8b73" d="M391 399h1c.201 6.425-.258 12.677-.937 19.063l-.528 5.097L390 427h-1c-.214 2.663-.37 5.331-.5 8s-.286 5.337-.5 8h-1c-.265-4.91-.185-9.834-.187-14.75l-.038-4.234-.005-4.063-.013-3.745C387 413 387 413 389 409q1.012-4.998 2-10"/><path fill="#d18366" d="m562 824 1 3 2 1c-1.497 4.255-2.783 6.783-6 10l-4-1v-6l4-3 1-3z"/><path fill="#c6765a" d="M644 402h2l1 2 2-1c-.552 8.46-1.317 16.684-3 25l-2 1a259 259 0 0 1-.25-13.437l-.023-3.917c.006-3.216.13-6.432.273-9.646"/><path fill="#e4bead" d="M393 363h1c-.624 27.624-.624 27.624-3 30-.58 4.17-1.032 8.35-1.5 12.535L389 409h-1c-.074-11.117 1.441-22.142 3-33.125l.54-3.83c.444-3.02.946-6.034 1.46-9.045"/><path fill="#d59b84" d="m832 869 1 2 3-1v2c-2.505 2.072-5.08 4.058-7.687 6l-4.325 3.25C820 884 820 884 815 886l1-4 6-1 1-4h2l2-4h4z"/><path fill="#d49981" d="m444 667 3 1c-1.683 8.1-4.63 15.46-8 23h-1c-.143-4.286-.044-7.825 1-12h2v-2h2l-1-5z"/><path fill="#c77153" d="M735 502h1v5h3c1.25 5.791 2.014 10.894 1.938 16.813L741 527l3-1-2 8c-2.14-4.279-2.765-8.18-3.496-12.875-1.85-11.47-1.85-11.47-3.504-13.125z"/><path fill="#d7a28b" d="m503 891 2 1c-7.215 3.772-13.215 4.129-21.25 4.063l-3.125-.014q-3.812-.02-7.625-.049c5.255-2.628 10.362-2.675 16.125-3.062C500.76 892.12 500.76 892.12 503 891"/></svg>