<svg xmlns="http://www.w3.org/2000/svg" viewBox="0 0 24 24" fill="none">
  <!-- Bell body -->
  <path d="M12 2C12.5523 2 13 2.44772 13 3V4.08296C15.8377 4.55904 18 7.02706 18 10V15L20 17H4L6 15V10C6 7.02706 8.16229 4.55904 11 4.08296V3C11 2.44772 11.4477 2 12 2Z" fill="#CC785C"/>
  <!-- Bell bottom -->
  <path d="M9 18H15C15 19.6569 13.6569 21 12 21C10.3431 21 9 19.6569 9 18Z" fill="#CC785C"/>
  <!-- Message bubble -->
  <rect x="14" y="1" width="9" height="7" rx="2" fill="#CC785C"/>
  <path d="M14 6L16 8V6H14Z" fill="#CC785C"/>
</svg>
