<svg xmlns="http://www.w3.org/2000/svg" width="1024" height="1024"><path fill="#cf6e4c" d="M655.055 279.86a107 107 0 0 1 8.257 6.64l2.614 2.281c8.197 8.583 14.032 18.155 19.199 28.781l1.837 3.744C691.656 331.01 695.66 340.744 699 351l1.106 3.24c20.253 59.398 26.526 122.922 34.3 184.9 3.65 28.812 7.842 58.392 17.594 85.86l1.867 5.285A258 258 0 0 0 768 662l1.86 3.758C776.897 679.69 786.384 691.632 797 703q2.283 2.593 4.562 5.187c7.389 8.16 15.915 14.45 24.829 20.848 3.422 2.811 5.523 5.087 7.609 8.965.077 3.861-.476 5.394-3 8.312-8.372 4.71-17.29 2.124-26-.312-17.504-5.373-33.891-14.352-48-26l-3.121-2.512C722.569 691.742 701.154 657.518 689 619l-1.805-5.625c-1.823-5.767-3.526-11.561-5.195-17.375l-1.34-4.648c-9.247-35.274-11.233-72.56-14.351-108.782C654.26 343.21 654.26 343.21 639 317c-4-3-4-3-10-3-24.095 22.167-21.63 79.996-22.883 109.996-.33 8.467-.51 16.938-.683 25.41l-.065 3.132c-.34 16.978-.436 33.95-.396 50.93a13941 13941 0 0 0 .123 35.164c.152 33.371-.016 66.523-4.346 99.68l-.655 5.081C592.815 697.645 574.9 753.813 535 793l-1 2h-2l-2 4c-15.696 15.72-38.085 29.518-60 34-5.835-.195-6.667-.667-11-5-1.037-5.184-.705-7.155 1-12l2-3h2l2-4a569 569 0 0 1 6.64-5.879c51.018-45.865 65.398-124.058 69.142-188.9 1.253-24.287 2.025-48.6 2.683-72.909C545.964 486.044 547.973 431.182 560 377l1.246-5.777c7.355-32.625 19.17-66.395 44.754-89.223 15.162-8.978 33.412-11.662 49.055-2.14m-154.242-88.61 3.332.203C507 192 507 192 510 195c.125 3.313.125 3.313-1 7-4.546 4.38-9.117 7.33-14.75 10.125-14.972 7.746-28.78 16.508-41.25 27.875l-3.297 2.934c-75.97 68.568-86.116 179.848-94.703 275.754-4.498 49.68-13.964 96.79-37 141.312l-2.117 4.105c-20.8 38.19-56.82 69.618-98.395 82.829-9.08 2.157-17.367 2.938-25.488-1.934-1.88-3.761-.838-7.02 0-11 2.875-3.062 2.875-3.062 7-6q2.66-1.9 5.313-3.812l2.863-2.063C219.198 713.079 229.945 701.979 239 690l3.688-4.687c21.07-29.383 31.982-63.833 39.543-98.787a679 679 0 0 1 2.105-9.268c4.264-19.366 6.195-39.098 8.527-58.766C298.385 472.065 304.669 425.182 317 380l.947-3.533C326.283 345.694 338.277 316.19 355 289l1.766-2.941c15.473-25.2 35.493-46.603 59.234-64.059l4.105-3.168c3.414-2.482 6.601-4.393 10.395-6.207 3.836-1.85 7.655-3.706 11.434-5.672 17.498-9.082 38.836-17.13 58.878-15.703"/><path fill="#cf6e4c" d="M606 218c1 5 1 5-2 10-4.21 1.957-4.21 1.957-9.375 3.813-8.61 3.29-16.063 6.953-23.625 12.187l-3.797 2.621c-9.511 6.687-9.511 6.687-13.203 10.379h-2v2h-2l-2 4-6.434 7.035c-4.626 5.345-8.6 11.122-12.566 16.965l-1.988 2.871C503.942 325.072 494.41 368.848 489 410l-.546 4.124c-2.995 23.53-4.122 47.074-5.133 70.753-1.036 24.138-2.685 48.098-5.321 72.123l-.472 4.362C470.487 624.807 452.33 694.564 401 737c-8.92 6.329-16.78 11.533-28 12-5-3-5-3-7-6 0-8.043 3.076-12.477 7.883-18.781 42.402-57.386 42.493-137.04 45.722-205.1 2.384-50.189 2.384-50.189 5.207-72.557l.517-4.144c5.68-44.29 15.24-89.37 35.671-129.418l2.043-4.078c8.927-17.38 19.474-32.98 32.648-47.387q2.414-2.652 4.774-5.351l2.41-2.747 2.18-2.503C507 249 507 249 510 248v-2c3.289-2.429 6.607-4.723 10-7l3.441-2.402C544.63 222.015 580.83 202.898 606 218"/><path fill="#d1704d" d="M805 713c5 3 5 3 8.563 6.125 4.393 3.836 8.943 7.206 13.703 10.566 2.983 2.519 4.821 4.915 6.734 8.309.077 3.861-.476 5.394-3 8.313-7.243 4.074-14.477 2.595-22.18.765-10.914-3.08-21.086-7.265-30.82-13.078v-1c3.654-.138 6.513-.162 10 1v3c4 .813 4 .813 8 1v-2h6c1.25-4 1.25-4 2-8h2v2c2-1 2-1 3.25-4.437L810 722l-2-2-1-4-2-1z"/><path fill="#e3a48e" d="M608 354h4c-.268 3.68-.615 7.331-1 11l-.445 4.303-.492 4.748-.524 5.06q-.532 5.138-1.078 10.274c-2.043 19.919-2.617 39.881-3.024 59.892-.02 1.03-.042 2.06-.064 3.12-.542 27.054-.45 54.108-.373 81.166q.037 12.928.056 25.857.01 5.109.032 10.218l.01 6.134.016 5.42L605 585h-1c-.122-2.323-.168-4.65-.19-6.977l-.05-4.61-.041-5.038-.056-5.112c-.08-7.264-.147-14.528-.215-21.792q-.08-7.923-.167-15.846l-.04-5.038c-.01-.76-.01-.76-.052-4.61l-.038-4.092L603 509h-1c-.871-8.604-1.239-17.238-1.625-25.875l-.158-3.277c-.186-4.48-.245-8.666.447-13.106L601 464h-3l1-4h2v-5l-2-2-1-3 2.41-1.72c2.59-2.28 2.59-2.28 3.142-5.7l-.099-4.049-.062-4.418-.141-4.613q-.092-4.515-.172-9.031l-.112-4.05C603 413 603 413 604 409c.204-3.435.365-6.874.5-10.312.393-9.985.393-9.985 1.094-14.606C606 381 606 381 605 377h2c.043-3.666.04-7.334 0-11l1-2v-3h-2c1-4 1-4 2-7"/><path fill="#d48c72" d="M370 389h2c-.42 6.735-1.489 13.329-2.637 19.973l-.991 5.842-.524 3.083c-3.165 18.715-5.944 37.445-8.223 56.29l-.721 5.94a974 974 0 0 0-3.461 34.862L355 519h-1a152 152 0 0 1-.535-6.71l-.264-4.212-.264-4.453-.275-4.43C352 488.442 352 488.442 352 486h2q.569-4.493 1-9l1-1c.1-2.77.13-5.541.125-8.312l.008-4.614C356 459 356 459 355 455l3-2c2.81-6.51 2.615-14.029 2-21l-2-2v-6h2a373 373 0 0 0 2-8l2-3 1-2h2v-8h2l-2-2v-4h2l.5-4z"/><path fill="#cf6f4d" d="m500.813 191.25 3.332.203C507 192 507 192 510 195c.174 4.603-.545 6.491-3.625 9.938-6.116 4.281-12.55 8.017-19.375 11.062l-2-1 2-5 4.75-.5 4.25-.5-2-5h-2l-1-2-3-1v-5h-3l-1 3v-2h-5v3l-5 2v2h-4l-1-4c-3.562-.75-3.562-.75-7-1 4.534-2.267 8.83-3.34 13.75-4.562l5.234-1.317c6.73-1.504 12.942-2.361 19.829-1.871"/><path fill="#cf8166" d="M662 425h3c.492 3.32.492 3.32.66 7.91l.217 4.936.186 5.216q.19 5.082.41 10.16l.164 4.587L667 461l2-1c.128 3.268.118 6.542.063 9.813C668.77 498.38 668.77 498.38 672 506l2 1h-2c.625 2.938.625 2.938 2 6l4 1v2l-5-1c.391 2.453.825 4.902 1.39 7.32.999 6.028.592 12.04.387 18.13L675 544h3c.223 2.887.223 2.887.063 6.688-.208 5.121-.027 7.403 1.937 12.312l-.062 5.375C680 574 680 574 681.563 577.5c2.059 5.014 1.154 9.219.437 14.5-15.221-30.442-13.066-76.61-15.75-109.812q-.681-8.253-1.366-16.504-.42-5.068-.832-10.137c-.587-7.197-1.233-14.372-2.052-21.547-.25-5.062-.25-5.062 0-9"/><path fill="#d06f4c" d="m435 677 4 1-1 5h3l1-4 2 4c-5.336 11.11-12.975 21.654-21 31h-1c-.625-3.437-.625-3.437-1-7l1-1c.262-4.62.113-6.775-2-11l2-5h2v-4h3l2-2 5 2-1-4z"/><path fill="#d99c86" d="M546 491h1c.102 2.46.128 4.923.13 7.385l.009 4.886-.006 5.35.003 5.45q0 5.735-.006 11.469-.005 8.76.007 17.52 0 5.562-.004 11.124l.006 5.294-.01 4.973-.002 4.354c-.135 4.444-.619 8.78-1.127 13.195a188 188 0 0 0-.174 6.438l-.04 3.577-.032 3.77-.1 7.979q-.072 6.26-.13 12.523c-.04 4.041-.092 8.082-.145 12.123l-.026 3.825c-.042 2.924-.185 5.846-.353 8.765h-2v6l-2 2 .063 5.063L541 659l-3 1c.176-4.718.524-9.31 1-14q.344-3.707.684-7.414l.369-3.965c2.857-31.543 3.568-63.206 4.478-94.851l.135-4.664q.333-11.461.637-22.923l.232-8.355.098-3.94c.085-2.964.22-5.927.367-8.888"/><path fill="#d3876b" d="m222 709 1 4-5 3c-2 3-2 3-1.875 6.438C216 726 216 726 212 730a169 169 0 0 1-10-1v2a253 253 0 0 1-6 2c-2 2-2 2-2.5 6.563L194 744c2.516.746 2.516.746 6 1l4.016.344 4.234.156 4.266.219L216 745c1.172-3.406 1.172-3.406 2-7l5-2 1-2 3 1-2 3h2l1-2c2.008.28 4.008.624 6 1h6c-4.402 3.302-8.332 4.762-13.5 6.625l-5.094 1.852c-5.7 1.97-10.337 2.706-16.344 2.773l-4.214.078C197 748 197 748 192 745c-1.88-3.761-.838-7.02 0-11 2.875-3.062 2.875-3.062 7-6q2.66-1.9 5.313-3.812l2.828-2.028c5.287-3.994 10.175-8.476 14.859-13.16"/><path fill="#d17e60" d="M706 377c2.272 3.408 2.86 6.045 3.77 10.035l.998 4.357 1.044 4.67 1.073 4.751c2.156 9.644 4.224 19.3 6.115 29l.628 3.19c.91 4.806 1.372 9.075 1.372 13.997l-4-3v-3h-2c-1.653-3.967-2.957-7.83-4-12l-3-1v-4h-2v-2l5-1c1.613-6.453.72-10.123-2-16l-1-3-2-1 1-3h-3v-2h-2c-.125-3.5-.125-3.5 0-7l3 3-1 2h2c.188-3.437.188-3.437 0-7l-1-1q.431-4.507 1-9"/><path fill="#c97254" d="M483 451h1c1.659 43.088-2.343 88.428-9 131h-1c-.24-10.284-.216-20.778 1-31h2c-.207-2.852-.207-2.852-.812-6.625l-.583-3.727L475 537c-.148-1.06-.296-2.12-.45-3.21C474 531 474 531 472 527c1.75-3.25 1.75-3.25 4-6h2c.377-3.767.617-7.471.781-11.25l.18-3.517c.188-3.744.365-7.488.539-11.233 1.631-34.256 1.631-34.256 3.5-44"/><path fill="#d3886d" d="M752 627c2.216 3.324 3.294 6.42 4.625 10.188 3.188 8.62 7.118 16.676 11.375 24.812l1.973 3.918c3.863 7.535 8.1 14.208 13.437 20.789L785 689l-1 2c-3.562-1.687-3.562-1.687-7-4v-3l-4-1q-.579-3.489-1-7c-3-3-3-3-6-4l-1-5-3-5v-3h-2l-1 2c-2-4-2-4-2.875-7-1.125-3-1.125-3-5.125-7l1-4h2c-.457-3.001-.923-6.002-1.492-8.984C752 631 752 631 752 627"/><path fill="#d38367" d="M721 449h1c.66 3.673 1.25 7.337 1.797 11.027l.53 3.52c1.936 12.975 3.687 25.975 5.393 38.982.537 4.09 1.084 8.178 1.632 12.266l1.039 7.896.492 3.656c.812 6.268 1.29 12.315 1.117 18.653-3.395-3.395-2.467-8.192-2.656-12.812C731 529 731 529 729 527c-.379-2.82-.379-2.82-.562-6.125L728 515h-1l-1.437-4.437C724 506 724 506 722 505v-3h-2v-4h2v-10h2l-1-3a470 470 0 0 1-.5-10.875c-.254-6.7-.548-13.381-1.125-20.062z"/><path fill="#d38c73" d="M603 591h1c.533 9.592-.28 19.151-1.25 28.688l-.409 4.067C599.815 648.05 596.454 672.648 589 696h-1c.012-4.511.101-8.993.25-13.5l.082-3.902c.105-3.206.372-6.405.668-9.598h3c.625-2.875.625-2.875 1-6l1-2 .438-5.625L595 650h2q.062-4.5 0-9l1-1c.21-2.163.368-4.331.5-6.5.389-6.389.389-6.389 1.5-7.5.272-5.602.448-11.2.605-16.807.099-3.065.243-6.13.395-9.193h1l.5-4.5z"/><path fill="#d38467" d="M498 354c1.429 5.714-.338 10.587-1.687 16.188-2.186 9.419-4.122 18.821-5.625 28.375l-.482 3.037a248 248 0 0 0-1.749 14.115L488 420h-1c-.078-2.25-.083-4.503-.062-6.754l.023-4.28.078-8.976.024-4.306.035-3.952c-.098-3.732-.098-3.732-.79-7.65L486 381l3-1v-5h2l-1-3h2l.438-5.187c.554-5.733 1.445-8.696 5.562-12.813"/><path fill="#dba38e" d="M608 354h4c-.268 3.68-.615 7.331-1 11l-.445 4.303-1.015 9.766c-1.646 15.983-3.174 31.863-3.54 47.931q-.183 7.704-.37 15.408-.129 5.422-.238 10.846l-.11 4.988-.093 4.527c-.03.533-.03.533-.189 3.231h-1c-.164-2.507-.253-5.02-.316-7.531l-.127-4.84-.12-5.129-.13-4.941c-.725-28.886-.725-28.886.693-34.559.204-3.435.365-6.874.5-10.312.393-9.985.393-9.985 1.094-14.606C606 381 606 381 605 377h2c.043-3.666.04-7.334 0-11l1-2v-3h-2c1-4 1-4 2-7"/><path fill="#d3886d" d="M276 704c3.813.375 3.813.375 7 2-9.096 13.644-27.175 22.705-41 31l-2-1-1-3 4-2 2-2-2-2c9.5-2 9.5-2 14-2v-3l-2-1 4-3v3h4l1-4h2v-2l3-3 4 1v-4l3-1z"/><path fill="#d38568" d="M509 306h3v2h-2v2c5-2 5-2 7-4-.911 4.555-2.071 7.41-4.125 11.5-5.14 10.768-8.844 22.13-12.012 33.625L500 354h-1c.042-9.165.75-17.38 4-26v-6l3-3 3 1v-2h2v-4l-3 1v-3h-2v-2h2z"/><path fill="#d99e87" d="M384 708c1.527 6.11-.922 10.657-4 16a181 181 0 0 1-8 6c-1.708 4.031-2.388 5.837-1 10h2v2h2l1 2c3.659.411 7.327.747 11 1-3.55 3.55-9.12 3.881-14 4-5-3-5-3-7-6 0-8.052 3.099-12.479 7.875-18.812 3.844-5.152 6.974-10.594 10.125-16.188"/><path fill="#d17b5c" d="m573 729 3 1c-1.2 6-3.8 10.829-6.625 16.188l-1.543 3.001C564.346 755.851 560.484 761.96 556 768h-1v-6l4-1v-6l1-2h3v-2h2v-5l-1-1-1-1v4l-3-1h2v-2l-2-1 1-4h3v-6h3l1 3h3l1-4.062zm-7 3 2 1Z"/><path fill="#d18165" d="M473 583h1c-.525 8.246-2.118 16.185-3.812 24.25-.249 1.22-.497 2.441-.752 3.7-1.755 8.44-3.67 16.875-6.436 25.05h-1c.066-2.273.205-4.545.375-6.812l.273-3.833C463 622 463 622 464 619l-4 1 2-4h2v-2h-2v-6l3 1v-3h2c.426-2.486.74-4.991 1-7.5s.574-5.014 1-7.5h2v-6z"/><path fill="#dda691" d="M662 425h3c.492 3.32.492 3.32.66 7.91l.217 4.936.186 5.216q.19 5.082.41 10.16l.164 4.587L667 461l2-1c.128 3.268.118 6.542.063 9.813C668.77 498.38 668.77 498.38 672 506l2 1h-2c-.288 2.992-.454 5.996-.562 9-.114 3.001-.25 6.002-.438 9h-1c-.305-2.455-.535-4.92-.74-7.385l-.415-4.886-.439-5.35-.46-5.45q-.727-8.684-1.446-17.366-.721-8.635-1.447-17.27-.451-5.385-.898-10.771l-.415-4.973-.36-4.354a410 410 0 0 0-.91-8.913c-.493-4.492-.757-8.769-.47-13.282"/><path fill="#d7977f" d="M778 733c3.654-.138 6.513-.162 10 1v3c2.997.358 5.998.688 9 1 5 3 5 3 6 5 3.427 1.142 6.526 1.44 10.125 1.75l3.82.36L820 745l1-3 2 3h5l1-4v2h2q.622-3.482 1-7l2 2c-.08 3.702-.563 5.494-3 8.313-7.243 4.074-14.477 2.595-22.18.765-10.914-3.08-21.086-7.265-30.82-13.078z"/><path fill="#d38f76" d="m560 246 5 1c-3.545 3.545-7.115 6.835-11 10h-2v2h-2l-2 4a134 134 0 0 1-4.375 5l-2.336 2.563c-2.054 2.186-4.168 4.316-6.289 6.437-.75-3.25-.75-3.25-1-7l4-4h-5c2.188-2.625 2.188-2.625 5-5l5 2 1-3 3-1v-2l4-1v-3l2-2h4l-1-4 4 1z"/><path fill="#d38a6e" d="m603 226 1 2c-3 1.307-6.055 2.49-9.125 3.625-7.661 2.96-14.499 6.19-21.344 10.71C571 244 571 244 567 246v-4h3l-2-4 4-2 1 2 4-1 1-5h2l2-4c2.82-.355 2.82-.355 6.125-.187L594 228v-1c4.438-.687 4.438-.687 9-1"/><path fill="#d99f89" d="M734 545h1c.455 2.287.84 4.587 1.2 6.89l.716 4.49c.255 1.607.51 3.214.771 4.87 6.794 41.724 6.794 41.724 13.528 61.04C752 625 752 625 751 627c-3-4-3-4-4-7l1-3-3-1q-.062-3.5 0-7h-2c-1.25-3.5-1.25-3.5-2-7h2a828 828 0 0 0-2.977-8.605c-1.452-4.817-1.702-9.385-2.023-14.395l-1-2c-.526-3.891-.963-7.79-1.402-11.691L735 562l-2-1c0-6 0-6 1-8z"/><path fill="#d28468" d="M499 258c1.555 3.11 1.286 5.563 1 9a373 373 0 0 1-4 6l2 3-4 1-5-3-1 4-2.937 1.438C482 281 482 281 480 286l-3 1c4.373-10.932 13.374-21.083 22-29"/><path fill="#d58c72" d="M340 599c1.162 4.65.534 6.24-.984 10.707l-1.336 3.967-1.43 4.139-1.383 4.103c-2.082 6.13-4.16 12.196-6.867 18.084h-1c-.228-5.178-.345-8.31 2-13h2v-6l-2-1 2-1 1-5-4 2v-4l5-3 2 1c.75-2.875.75-2.875 1-6l-2-1 3-.312 3-.688z"/><path fill="#d6957d" d="M430 412h1c.102 2.415.13 4.833.125 7.25l.008 4.078C431 427 431 427 430 431c-.276 5.482-.446 10.963-.621 16.45-.346 5.07-1.052 9.65-2.379 14.55h-1l-1 4.5-1 4.5h-1c-.132-19.513 3.113-39.892 7-59"/><path fill="#d3886c" d="m351 521 3 2c.706 11.805-2.086 24.088-4 35.688l-.828 5.146c-.982 6.074-1.965 12.132-3.172 18.166h-1c.066-3.148.204-6.294.375-9.437l.273-5.31C346 563 346 563 347 562c1.886-8.067 2.271-14.785 1-23l-3 1-1-2c2.313-2.75 2.313-2.75 5-5l2 2z"/><path fill="#d6967f" d="M326 351h1c.188 5 .188 5 0 10h-2v3.688c0 4.312 0 4.312-2 9.312h-2c-.433 2.506-.743 5.033-1 7.563-.445 4.328-.938 8.228-2.187 12.402L317 397l2 1h-2l-1 3-3-1c.158-7.886 2.601-15.304 4.813-22.812l1.04-3.62c2.202-7.587 4.522-15.115 7.147-22.568"/><path fill="#dba48f" d="M556 396h1c.334 7.021-.593 13.86-1.437 20.813-1.163 9.866-1.967 19.651-2.254 29.59C553 450 553 450 551 454c-.414 2.24-.764 4.492-1.062 6.75A169 169 0 0 1 549 467h-1c-.397-23.39 3.225-48.138 8-71"/><path fill="#d59077" d="M653 280c9.618 2.404 17.57 13.045 23 21l-1 2c-3.062-2.25-3.062-2.25-6-5v-2h-3v2h-4v-2h-2l-.375-2.812C659 290 659 290 655 287l-1-4z"/><path fill="#d58e75" d="m399 235 2 1c-3 5-3 5-6 8h-3l-1 4-2 1-.5 4.063L388 257h-2l-1 4v-2h-5c.188 3 .188 3 1 6l-1-2a131 131 0 0 0-8 3c5.822-11.645 17.2-22.56 27-31"/><path fill="#d79881" d="M414 601h1c.101 4.34.139 8.66.125 13l.012 3.758A416 416 0 0 1 415 627h-1l.125 4.938L414 637l-3 1v4.25c0 4.75 0 4.75-3 9.75l-2 5c-1.046-4.183-.82-5.825.11-9.926l.784-3.573.856-3.813a346 346 0 0 0 5.707-34.676z"/><path fill="#d17d5f" d="M342 575h3c.615 8.606-.453 15.771-3 24h-2l-1 3-1.25-4.375C336 593 336 593 332 591h2l-1-3 2-3 1 2 4-1c1.812-3.987 2-6.53 2-11"/><path fill="#d48d74" d="M676 303c2.918 2.918 4.24 5.093 6.066 8.734l1.721 3.43 1.775 3.586 1.788 3.54 1.716 3.444 1.561 3.132c1.464 3.342 2.58 6.571 3.373 10.134h-2l-1-3-2-1-1-3.562-1-3.438h-2l-1-5-3 1-2-3-3-1 1-4c1-5 1-5-1-9z"/><path fill="#d89a84" d="M537 660c2.811 5.623 2.27 9.733 2 16l-2 1a102 102 0 0 0-1.062 7c-.843 6.905-.843 6.905-1.938 8-.286 3.297-.449 6.594-.621 9.898C533 705 533 705 531 708l-3 1-1 5c-1.386-4.158-.16-6.379 1.125-10.562 2.31-7.986 4.081-15.966 5.625-24.125l.637-3.364c.986-5.303 1.91-10.601 2.613-15.949"/><path fill="#d58d74" d="m414 716 5 2c-5.09 10.18-16.092 17.32-25 24h-2l1-5 4-1 1-3h3v-2h3l1-4h4l-1-3h3l-2-4 4-3z"/><path fill="#d79982" d="M569 344c1.146 4.585.536 6.992-.5 11.563-1.61 7.11-1.61 7.11-.5 10.437h-4c-.46 3.684-.46 3.684-.375 8.438l.04 4.746c.11 1.259.22 2.518.335 3.816l2 1-1 2-3-1v2h-2a299 299 0 0 0-1 6l-2 3c.614-8.536 2.34-16.576 4.313-24.875l.896-3.895A227 227 0 0 1 569 344"/><path fill="#d79880" d="M346 305c1.803 3.605-.029 7.268-1 11l-2 3h-2l.125 3.625c-.14 4.922-1.131 6.589-4.125 10.375l-2 3h-2v8h-2a101 101 0 0 0-3 6l-1-2a269 269 0 0 1 4.438-11.562l1.376-3.4C343.087 307.912 343.087 307.912 346 305"/><path fill="#d48c73" d="M247 679h1c.188 3.375.188 3.375 0 7l-2 2-2 3.125-2 2.875h-2v2l-4 2-1 2 2 2-1 2h-4v2a190 190 0 0 1-9 3l2.313-2.687c1.216-1.424 2.433-2.847 3.687-4.313l2.602-3.008c5.535-6.45 10.59-12.988 15.398-19.992"/><path fill="#d48e76" d="M395 312h3c-1.13 4.723-3.322 9.086-5.312 13.5-2.916 6.573-5.447 13.188-7.743 20L384 348h-1a105 105 0 0 1-.687-6l-.325-3.375L382 336h2l-1-4c2.813-3.75 2.813-3.75 6-7h2v-4h2v-7h2z"/><path fill="#d9a38e" d="m478 797 1 2-2 5-4 1-2 4-4 2c-3 5-3 5-4 9h-2c-.125 4.438-.125 4.438 1 9 5.9 1.93 11.916.76 18 0-2.977 2.977-5.911 3.23-10 4-5.835-.195-6.667-.667-11-5-1.037-5.184-.705-7.155 1-12l2-3h2l2-4c2.247-2.025 4.496-4.05 6.809-6 2.191-2 2.191-2 5.191-6"/><path fill="#daa38f" d="M726 483h1a397 397 0 0 1 1.629 11.277l.466 3.5q.49 3.687.971 7.373c.49 3.74.992 7.48 1.495 11.22q.473 3.578.943 7.157l.454 3.373c.785 6.076 1.196 11.974 1.042 18.1-3.395-3.395-2.467-8.192-2.656-12.812C731 529 731 529 729 527a148 148 0 0 1-.5-8.5c-.3-6.734-.816-12.975-2.5-19.5h-1c0-5 0-5 1-7z"/><path fill="#d38d74" d="m301 676 5 2c-4.927 9.854-13.439 21.02-22 28-2-3-2-3-2-5h3v-3l4-1-1-4c5-3 5-3 8-3v-5l4-2 .438-3.75z"/><path fill="#d59982" d="M656 372c2.898 2.898 2.609 5.538 3.063 9.563.84 7.34.84 7.34 1.937 8.437l1 8 1 1c.127 3.457.176 6.916.188 10.375l.042 5.773C663 420 663 420 661 423q-.973-9.094-1.937-18.187l-.553-5.163c-.976-9.21-1.858-18.41-2.51-27.65"/><path fill="#d28365" d="m224 734 3 1-2 3h2l1-2c2.008.28 4.008.624 6 1h6c-5.831 4.373-11.226 7.225-18.625 6.625L218 743v2h-2c.563-3.375.563-3.375 2-7l5-2z"/><path fill="#d59077" d="m267 640 1 4 1 2h-2v4h-2l1.063 3.313L267 657l-6 6h-2v3h-2l1 4-4 1-1 3h-2c1.692-4.23 3.56-7.96 5.75-11.937 3.875-7.184 7.176-14.506 10.25-22.063"/><path fill="#dca693" d="M603 591h1c.55 9.701-.318 19.358-1.312 29l-.406 4.05c-2.338 22.787-2.338 22.787-4.282 33.95h-1c-.101-2.811-.13-5.625-.125-8.437l-.008-4.747C597 641 597 641 598 640c.21-2.163.368-4.331.5-6.5.389-6.389.389-6.389 1.5-7.5.272-5.602.448-11.2.605-16.807.099-3.065.243-6.13.395-9.193h1l.5-4.5z"/><path fill="#d38b70" d="m477 213 2 2a90 90 0 0 0 6 1c-3.332 3.332-6.73 5.417-10.75 7.875-5.23 3.203-10.297 6.507-15.25 10.125v-5h3l1-4c2.656-.409 5.325-.745 8-1v-2l-3-1 4-1-2-2 3-1v2h4l-1-5z"/><path fill="#d28267" d="M461 821c2 4 2 4 3 7 5-2 5-2 7-4l1 5c2.813-.687 2.813-.687 6-2h4l1-3 3 1v-3c4.04-1.347 7.768-1.061 12-1-10.418 7.813-21.222 10-34 10-3-4-3-4-3-10"/><path fill="#e2b4a2" d="M483 451h1c.555 13.402-.292 26.866-.937 40.25l-.264 5.758C481.844 517.4 481.844 517.4 481 527h-1c-.48-12.821.105-25.74.375-38.562.03-1.84.062-3.68.094-5.577.228-10.678.564-21.335 2.531-31.861"/><path fill="#d58c71" d="m455 647 3 1c-.093 5.801-3.017 10.944-5.375 16.125l-2.398 5.32C448 674 448 674 445 678v-5h2v-4h2c-.256-3.673-.593-7.34-1-11 0-2 0-2 1-5h3l1.5-3.062z"/><path fill="#d3886c" d="m744 702 .5 3.063.5 2.937 3-1 1 2 5 1 4 2v2h2q.624 3.984 1 8c-4.075-2.038-6.968-4.314-10.437-7.25l-3.372-2.828c-3.063-2.805-5.748-5.561-8.191-8.922 2-1 2-1 5-1"/><path fill="#d7967f" d="M674 550h1l.875 2.688C677 556 677 556 680 561c.188 3.086.188 3.086 0 6.375-.117 4.19-.12 6.349 1.563 10.25 2.103 4.94 1.146 9.153.437 14.375-2.561-5.122-3.468-10.363-4.562-15.937l-.675-3.403c-1.458-7.562-2.568-14.946-2.763-22.66"/><path fill="#d5967f" d="M492 375h2c-.137 2.832-.137 2.832-.687 6.813l-.602 4.402c-.965 6.493-2 12.973-3.05 19.453-.536 3.51-.971 6.984-1.286 10.52L488 420h-1a524 524 0 0 1-.125-13.437l-.012-3.877.004-3.682.004-3.412C487 393 487 393 488 392l.5-4.562.5-4.438h1q.509-3.499 1-7z"/><path fill="#d59279" d="M714 671c4.867 1.622 6.643 2.285 9 7v-2l2 1-1 5h2l2 5h3l1 5 3 5-1 2c-7.746-7.746-14.034-16.841-20-26z"/><path fill="#d58d74" d="M404 657h1c.128 1.997.176 4 .188 6l.042 3.375L405 669h-2v5l1.938-3 2.062-3h1v6l-7 7-2-1v5l-3 1v3h-2c.927-3.023 1.949-6.018 3-9a554 554 0 0 0 1.79-5.91 2866 2866 0 0 0 2.781-9.354A384 384 0 0 1 404 657"/><path fill="#d78a6f" d="m484 420 3 1c.11 3.684.11 3.684-.25 8.438l-.36 4.925L486 439l-.266 3.418c-.19 2.2-.451 4.393-.734 6.582h-1l-.375-3.125L483 443l-3 2-1-5h2c-.293-3.097-.596-6.194-1.004-9.277L480 428l3-1 .5-3.625z"/><path fill="#d6967e" d="M382 348c1.68 5.041-.785 9.926-2.25 14.875q-.982 3.4-1.957 6.8l-.948 3.304c-1.483 5.3-2.687 10.642-3.845 16.021-2.22-4.441-2.415-7.105-2-12l3 1c.223-4.059.223-4.059.063-9.437-.09-3.187-.131-6.376-.063-9.563h2l1-3h2l-.062-3.437L379 349z"/><path fill="#d4917a" d="M366 273c0 3.908-1.292 6.52-3 10h-2v5l-2.5 2.375C356 293 356 293 356 296.75V300l-5 1v3l-4 1c4.578-11.446 11.173-22.464 19-32"/><path fill="#d99f89" d="M441 364c1.124 4.496 1.2 8.38 1 13l-2 1 .625 2.938L441 384l-4 2c-.094 2.999-.075 6 0 9-.875 5.563-.875 5.563-2 10h-2a150 150 0 0 0-1 6h-1c.484-7.873 2.05-15.296 3.875-22.937l.777-3.342c1.633-6.952 3.432-13.842 5.348-20.721"/><path fill="#d5947c" d="M418 272h4c-1.946 3.893-4.16 7.23-6.625 10.813-4.448 6.597-8.268 13.348-11.879 20.433L402 306h-1c-.187-3.5-.187-3.5 0-7h2v-4h2v-2h2l-.625-2.875L406 287l4-2v-2h2l.938-2.937c.35-1.011.7-2.022 1.062-3.063l3-1z"/><path fill="#db9f89" d="M598 214v1c-3.414.216-6.832.371-10.25.5-10.316.391-10.316.391-14.75 1.5v2c-4.386 1.754-6.875 2.31-11.437 2.563-4.259.246-8.365.67-12.563 1.437 9.945-9.945 35.773-11.48 49-9"/><path fill="#db9e87" d="M308 418h1c.806 9.438-.29 17.521-3.32 26.465L305 447h2l1 5h-3c-.875 3.438-.875 3.438-1 7l3 1-2 3-2-1-2 2c.643-10.061 2.218-19.832 4-29.75l.828-4.75c1.52-8.554 1.52-8.554 2.172-11.5"/><path fill="#d58b6f" d="m486 194-2 2v1h-5v3l-5 2v2h-4l-1-4c-3.562-.75-3.562-.75-7-1 4.021-2.01 7.652-3.08 12-4.187l4.25-1.106C482 193 482 193 486 194"/><path fill="#d28062" d="m435 677 4 1-1 5h3l1-4 2 4c-1.52 3.234-1.52 3.234-3.812 6.75l-2.27 3.547L436 696h-1l.063-3.062C435 689 435 689 433.875 685.375 433 682 433 682 435 677"/><path fill="#d3896f" d="m476 287 1 4-1 1 .063 3.938C476 300 476 300 474 302h-3l-.812 3.375L469 309c-3.125 1.438-3.125 1.438-6 2 1.527-5.471 4.158-9.952 7.063-14.812l2.722-4.583C475 288 475 288 476 287"/><path fill="#d8967e" d="M283 583h1c.128 3.676.185 7.324.188 11l.037 3.18c.005 2.608-.1 5.215-.225 7.82h-2v3h2l-1 2-4 1v5l-3 1c.293-7.256 2.357-14.447 4-21.5l.828-3.648c.685-2.96 1.423-5.908 2.172-8.852"/><path fill="#d38e74" d="M610 281v3a212 212 0 0 1-7 5l-1 2h-2l-1 5-1 1 2 2-4 2-1-1-1 2a101 101 0 0 1-6 2c4.24-8.482 11.048-15.627 18-22z"/><path fill="#d5967e" d="m626 309 1 2c2.871.344 2.871.344 6.438.5 6.34.278 6.34.278 8.562 2.5 2 5 2 5 2 10l-1.687-2.187c-4.49-5.46-4.49-5.46-7.313-7.813h-6c-3.187 3.25-3.187 3.25-6 7l-3 4-1-4h2v-4h2l-1-3 2-2h2z"/><path fill="#d5957e" d="M694 339c3.677 5.515 5.157 12.166 7.188 18.438l1.443 4.337 1.35 4.159 1.246 3.814C706 373 706 373 705 377v-3h-2c-3-5-3-5-4-7h2v-3h-2c-1.769-3.98-2.348-8.042-3-12.312L695 346l-2-1c.375-3.062.375-3.062 1-6"/><path fill="#d7967e" d="m696 636 3 1-1 3 2 1c4.043 3.032 5.18 4.452 7 9v5h2v4l2 1v6c-2.85-2.85-4.14-4.894-5.918-8.437l-1.611-3.211-1.659-3.352-1.693-3.352C696 639.38 696 639.38 696 636"/><path fill="#d37c5f" d="m399 681 4 2-1 5h2l-1 4c-3.437.875-3.437.875-7 1l-2-2 .313 5.625L394 702l-5-2c.981-3.924 2.19-7.38 4-11h3v-3l2-1z"/><path fill="#d18468" d="m317 658 1 2c-1.158 2.36-2.428 4.666-3.75 6.938l-2.172 3.777C310 674 310 674 307 677c-.687-3-.687-3-1-6h3c-2-5-2-5-4-6h2l2-4c3-1.187 3-1.187 6-2z"/><path fill="#dba792" d="m196 730 2 1-4 4c-.625 4.688-.625 4.688 0 9 4.926 1.522 10.259 1.167 15.375 1.188l4.898.042L218 745v-2l5 1c-5.69 3.793-11.402 4.293-18.125 4.313l-4.133.05C197 748 197 748 192 745c-1.813-3.626-.678-7.14 0-11z"/><path fill="#d9a390" d="M479 531h1c-.206 11.534-1.674 23.053-3 34.5l-.54 4.84-.522 4.566-.473 4.135L475 582h-1c-.24-10.284-.216-20.778 1-31h2c0-2.932-.006-5.865-.059-8.797.073-3.96.83-7.446 2.059-11.203"/><path fill="#d3866c" d="M577 323c4.726 4.726 4 5.757 4 12-4 2-4 2-8 3v6l-3-1c.923-4.613 2.177-8.662 3.813-13.062.5-1.394 1.002-2.787 1.519-4.223z"/><path fill="#d17a5b" d="M388 700h1c1.212 11.152 1.212 11.152 0 16l-2 2v2l-3 3h-3c1.271-7.881 3.427-15.853 7-23"/><path fill="#dda895" d="M291 533h1c.295 8.94-.427 17.213-2 26-.404 2.322-.782 4.653-1 7h2a152 152 0 0 1-3 10h-1l-1 3.5-1 3.5h-1c.577-6.898 1.75-13.686 2.938-20.5 1.519-8.853 2.762-17.684 3.667-26.625z"/><path fill="#d48e76" d="M457 321c1 4 1 4 0 8h-2v4h2l1 3h-3l1 4h2v2l-2.937-.687L452 341l-1 5-4 3c2.34-9.77 6.053-18.775 10-28"/><path fill="#d4957e" d="M534 277c0 4.328-2.461 6.57-4.918 9.957-3.105 4.539-5.722 9.328-8.383 14.137C519 304 519 304 517 306v-5h2v-6h2l1-4 1-2h2v-4h2v-2h2l-1-4c2.938-1.437 2.938-1.437 6-2"/><path fill="#d79880" d="m524 236 2 1c0 3 0 3-2 6h-6v4c-4 2-4 2-7.312 3.25-4.23 2.007-7.254 4.596-10.688 7.75 2.144-4.288 4.487-6.78 8-10h2v-2c2.454-1.776 4.913-3.548 7.422-5.246 2.237-1.522 4.414-3.13 6.578-4.754"/><path fill="#d49179" d="m505 325 3 1c-1.145 5.724-2.803 11.235-4.5 16.813l-.973 3.255A370 370 0 0 1 500 354h-1c.04-2.71.16-5.419.313-8.125l.238-4.57c.473-4.536 1.416-8.24 3.449-12.305h2z"/><path fill="#daa28e" d="m652 278 1 2q-4.514-.376-9-1v-2c-3.637-.01-7.187.103-10.812.313l-3.104.146c-7.65.396-7.65.396-11.084 1.541h-6c11.533-7.689 26.799-6.112 39-1"/><path fill="#d69983" d="m571 739 1 2c-4.364 9.567-9.63 18.64-16 27h-1v-6l4-1v-6l1-2h3v-2h2v-5h2v-3h2v-3z"/><path fill="#c88167" d="M603 446h1c.281 3.881.482 7.738.625 11.625l.134 3.609c.292 9.498.18 18.957-.134 28.454l-.13 4.012c-.12 3.102-.301 6.202-.495 9.3h-1c-2.026-18.632-2.026-38.368 0-57"/><path fill="#d48a6f" d="m369 737 2 1v2h2v2h2l1 2c3.659.411 7.327.747 11 1-2.569 2.569-4.321 2.642-7.875 3.25l-3.18.578C373 749 373 749 369 747c-.375-5.187-.375-5.187 0-10"/><path fill="#d59278" d="M805 713c4.916 2.95 8.707 6.22 13 10a491 491 0 0 0 8 6l-4 1-2-3c-6 0-6 0-8 1-1.5-3.125-1.5-3.125-3-7-2-5-2-5-4-6z"/><path fill="#d58f76" d="M445 246a678 678 0 0 1-10.812 12.438l-2.333 2.62L430 263h-1c0-5.54.52-6.11 4-10l2-3h3l-2-1 1-3c2.862-1.43 4.934-.6 8 0"/><path fill="#d69179" d="m506 758 1 4h-2l-1 5-2 4-1 3.125C500 777 500 777 498 779l-2 4-3-3c2.053-5.131 4.596-9.199 7.625-13.812l3.04-4.645z"/><path fill="#d17f61" d="M537 261c3.313.25 3.313.25 6 2 .39 4.982-.973 6.965-4 10.938L536 277h-1c-.812-3.25-.812-3.25-1-7l4-4h-5c1.625-2.625 1.625-2.625 4-5"/><path fill="#d27f61" d="m809 723 4 4 1-1h6l3 3 3 1c3 1 3 1 6 4l-1 2-3-1v-2h-2v-2h-5l-5-3 1 3c-6.195 1.403-6.195 1.403-9 0a124 124 0 0 1 1-8"/><path fill="#d59178" d="m785 691 5 5 4.063 3.938c3.162 3.262 5.616 6.193 7.937 10.062-3.812-.625-3.812-.625-8-2-1.85-2.774-3-4.64-3-8h-5c-.812-4.5-.812-4.5-1-9"/><path fill="#d2876c" d="M535 787h5a250 250 0 0 1-6 8h-2l-2 4-5 3v-4h2v-3h3l-1-4 3-3 3 1z"/><path fill="#d99e8a" d="M715 415h1a481 481 0 0 1 2.563 12.625l.708 3.605.67 3.497.616 3.205C721 441 721 441 721 447c-4-3-4-3-4.574-6.031l-.114-3.469c-.248-6.308-.248-6.308-1.312-9.5-.094-2.228-.13-4.458-.125-6.687l-.008-3.575z"/><path fill="#d69881" d="m507 192 3 3c-.187 3.625-.187 3.625-1 7l-2 1 .063-2.75L506 197c-6.662-2.415-12.948-3.306-20-4v-1c6.89-1.351 14.099-1.322 21 0"/><path fill="#dca794" d="M351 541h1c-.513 9.209-1.904 18.174-3.5 27.25l-.684 4.027c-1.258 7.245-1.258 7.245-1.816 9.723h-1c.066-3.148.204-6.294.375-9.437l.273-5.31C346 563 346 563 347 562c1.121-5.342 2-10.102 2-15.562 0-3.438 0-3.438 2-5.438"/><path fill="#d69079" d="m431 695 4 1c-1.91 4.777-3.928 7.794-7.062 11.813-.899 1.16-1.797 2.322-2.723 3.519L423 714h-1c-.875-3.437-.875-3.437-1-7l5-1 1-5h2v-2h3z"/><path fill="#d28c73" d="M319 377c1.488 5.951.546 11.161-1.187 17l-.813 3 2 1h-2l-1 3-3-1c.225-6.961 1.91-13.397 4-20h2z"/><path fill="#d28162" d="M660 290c5.744 1.287 9.87 3.87 14 8l2 5c-5.875-3.625-5.875-3.625-7-7h-3v2h-4v-2h-2z"/><path fill="#d89d88" d="M469 605c1.427 5.707-.367 10.506-1.812 16.063l-.83 3.337c-2.088 8.195-2.088 8.195-4.358 11.6q.171-3.5.375-7c.07-1.3.14-2.599.21-3.937.138-1.011.274-2.022.415-3.063h2v-10h2c.743-2.31 1.411-4.646 2-7"/><path fill="#d79c88" d="M587 696c1.715 5.144-1.11 10.102-2.812 15.063l-1.12 3.376c-2.801 8.294-2.801 8.294-5.068 10.561l-1-4h2v-7h2q.562-3.491 1-7h1l.938-4.937L585 697z"/><path fill="#d17e61" d="M422 250h4v2h2c1.868 3.737 2.015 5.895 1.438 10.063-1.52 4.163-3.083 6.112-6.438 8.937v-6h2v-2h2c-.125-4.5-.125-4.5-1-9h-4z"/><path fill="#d49279" d="m502 202 4 1c-1.607 4.822-5.599 5.864-9.937 8.25l-4.965 2.766L487 216l-2-1 2-5c4.625-.687 4.625-.687 9-1v-2h4v-2h2z"/></svg>